# Blender 4.3.2
# www.blender.org
mtllib Glock.mtl
o Cube
v 0.341049 0.647115 1.709026
v 0.341049 0.423009 0.245920
v 0.000000 1.212708 -1.886282
v 0.000000 -1.000000 1.928824
v 0.000000 1.212708 1.709026
v 0.000000 0.521922 1.393903
v 0.000000 1.212708 0.000000
v 0.000000 -1.134715 0.772838
v 0.000000 1.212708 -0.850197
v 0.000000 0.647115 1.709026
v 0.000000 0.474782 -1.886282
v 0.000000 -0.085083 0.404145
v 0.000000 -0.046734 -0.628211
v 0.000000 0.446345 -0.715119
v 0.341049 0.961398 1.709026
v 0.256587 1.212708 1.709026
v 0.316311 1.139101 1.709026
v 0.256587 1.212708 -1.886282
v 0.341049 0.961398 -1.886282
v 0.316311 1.139101 -1.886282
v 0.341049 0.961398 0.078260
v 0.256587 1.212708 0.000000
v 0.316311 1.139101 0.022922
v 0.256587 1.212708 -0.850197
v 0.341049 0.961398 -0.805902
v 0.316311 1.139101 -0.837223
v 0.341049 -1.013273 1.814927
v 0.303456 -1.000000 1.928824
v 0.330038 -1.003888 1.895464
v 0.303456 0.521922 1.393903
v 0.341049 0.462103 1.296366
v 0.341049 0.563220 1.497854
v 0.330038 0.504401 1.365335
v 0.256691 -1.134715 0.772838
v 0.341049 -1.104931 1.028412
v 0.316341 -1.125991 0.847694
v 0.341049 0.049155 0.623028
v 0.104022 -0.085083 0.404145
v 0.341049 0.154567 0.329515
v 0.316341 -0.045766 0.468254
v 0.188380 0.116716 -0.485797
v 0.131708 -0.046734 -0.628211
v 0.171781 0.001139 -0.586499
v 0.188380 0.442169 -0.543161
v 0.131708 0.446345 -0.715119
v 0.131708 -0.082025 0.321824
v 0.188380 0.088312 0.278832
v 0.171781 -0.029542 0.239434
v 0.341049 0.651247 -1.886282
v 0.281755 0.474782 -1.886282
v 0.323682 0.526468 -1.886282
v 0.284377 0.446345 -0.715119
v 0.341049 0.627357 -0.765688
v 0.171781 0.443195 -0.668191
v 0.324450 0.501058 -0.742055
v 0.000000 0.460563 -1.300701
v 0.000000 1.212708 -1.786661
v 0.256587 1.212708 -1.786661
v 0.316311 1.139101 -1.785413
v 0.341049 0.961398 -1.782402
v 0.282007 0.472048 -1.773673
v 0.323756 0.524024 -1.776263
v 0.341049 0.648950 -1.778535
v 0.000000 1.212708 -1.710755
v 0.256587 1.212708 -1.710755
v 0.323812 0.522163 -1.692434
v 0.341049 0.647200 -1.696438
v 0.316311 1.139101 -1.708557
v 0.341049 0.961398 -1.703250
v 0.282199 0.469964 -1.687871
v 0.055288 1.212708 0.000000
v 0.055288 1.212708 1.709026
v 0.055288 1.212708 -1.886282
v 0.055288 1.212708 -0.850197
v 0.043409 1.212708 -1.786661
v 0.043409 1.212708 -1.710755
v 0.000000 1.321742 -1.786661
v 0.000000 1.321742 -1.710755
v 0.043409 1.323671 -1.786661
v 0.043409 1.323671 -1.710755
v 0.341049 0.584545 1.300529
v 0.000000 1.212708 1.231868
v 0.256587 1.212708 1.231868
v 0.316311 1.139101 1.238268
v 0.341049 0.961398 1.253718
v 0.055288 1.212708 1.231868
v 0.341049 0.602468 1.417544
v 0.000000 1.212708 1.368551
v 0.256587 1.212708 1.368551
v 0.055288 1.212708 1.368551
v 0.316311 1.139101 1.373118
v 0.341049 0.961398 1.384143
v 0.000000 -0.065908 -0.112033
v 0.000000 1.251747 1.231868
v 0.055288 1.282027 1.231868
v 0.000000 1.251747 1.368551
v 0.055288 1.282027 1.368551
v 0.000000 0.423009 0.245920
v 0.000000 0.154567 0.329515
v 0.000000 0.116716 -0.485797
v 0.000000 0.442169 -0.543161
v 0.000000 0.088312 0.278832
v -0.341049 0.647115 1.709026
v -0.341049 0.423009 0.245920
v -0.341049 0.961398 1.709026
v -0.256587 1.212708 1.709026
v -0.316311 1.139101 1.709026
v -0.256587 1.212708 -1.886282
v -0.341049 0.961398 -1.886282
v -0.316311 1.139101 -1.886282
v -0.341049 0.961398 0.078260
v -0.256587 1.212708 0.000000
v -0.316311 1.139101 0.022922
v -0.256587 1.212708 -0.850197
v -0.341049 0.961398 -0.805902
v -0.316311 1.139101 -0.837223
v -0.341049 -1.013273 1.814927
v -0.303456 -1.000000 1.928824
v -0.330038 -1.003888 1.895464
v -0.303456 0.521922 1.393903
v -0.341049 0.462103 1.296366
v -0.341049 0.563220 1.497854
v -0.330038 0.504401 1.365335
v -0.256691 -1.134715 0.772838
v -0.341049 -1.104931 1.028412
v -0.316341 -1.125991 0.847694
v -0.341049 0.049155 0.623028
v -0.104022 -0.085083 0.404145
v -0.341049 0.154567 0.329515
v -0.316341 -0.045766 0.468254
v -0.188380 0.116716 -0.485797
v -0.131708 -0.046734 -0.628211
v -0.171781 0.001139 -0.586499
v -0.188380 0.442169 -0.543161
v -0.131708 0.446345 -0.715119
v -0.131708 -0.082025 0.321824
v -0.188380 0.088312 0.278832
v -0.171781 -0.029542 0.239434
v -0.341049 0.651247 -1.886282
v -0.281755 0.474782 -1.886282
v -0.323682 0.526468 -1.886282
v -0.284377 0.446345 -0.715119
v -0.341049 0.627357 -0.765688
v -0.171781 0.443195 -0.668191
v -0.324450 0.501058 -0.742055
v -0.256587 1.212708 -1.786661
v -0.316311 1.139101 -1.785413
v -0.341049 0.961398 -1.782402
v -0.282007 0.472048 -1.773673
v -0.323756 0.524024 -1.776263
v -0.341049 0.648950 -1.778535
v -0.256587 1.212708 -1.710755
v -0.323812 0.522163 -1.692434
v -0.341049 0.647200 -1.696438
v -0.316311 1.139101 -1.708557
v -0.341049 0.961398 -1.703250
v -0.282199 0.469964 -1.687871
v -0.055288 1.212708 0.000000
v -0.055288 1.212708 1.709026
v -0.055288 1.212708 -1.886282
v -0.055288 1.212708 -0.850197
v -0.043409 1.212708 -1.786661
v -0.043409 1.212708 -1.710755
v -0.043409 1.323671 -1.786661
v -0.043409 1.323671 -1.710755
v -0.341049 0.584545 1.300529
v -0.256587 1.212708 1.231868
v -0.316311 1.139101 1.238268
v -0.341049 0.961398 1.253718
v -0.055288 1.212708 1.231868
v -0.341049 0.602468 1.417544
v -0.256587 1.212708 1.368551
v -0.055288 1.212708 1.368551
v -0.316311 1.139101 1.373118
v -0.341049 0.961398 1.384143
v -0.055288 1.282027 1.231868
v -0.055288 1.282027 1.368551
vn -0.0000 1.0000 -0.0000
vn -0.0000 -0.0000 1.0000
vn -0.0000 -0.9997 -0.0243
vn -0.0000 -0.9293 0.3692
vn 1.0000 -0.0000 -0.0000
vn -0.0000 -0.9978 -0.0670
vn -0.0000 -0.9933 0.1158
vn -0.0000 -0.9993 -0.0371
vn 0.7650 -0.4952 -0.4118
vn -0.0000 -0.0000 -1.0000
vn 0.7765 0.6301 -0.0000
vn 0.9904 0.1379 -0.0000
vn -0.1503 -0.8989 0.4115
vn -0.5293 -0.7583 0.3805
vn 0.7765 0.2089 0.5944
vn 0.9904 0.0457 0.1301
vn -0.0000 0.3316 0.9434
vn 0.9904 -0.0457 -0.1301
vn 0.4754 -0.2610 -0.8402
vn -0.0000 -0.3314 -0.9435
vn 0.9831 -0.1795 -0.0349
vn 0.9908 -0.0242 -0.1334
vn 0.7649 -0.1143 -0.6339
vn 0.9904 -0.1378 -0.0051
vn 0.7765 -0.6296 -0.0234
vn -0.0000 -0.1736 -0.9848
vn 0.3907 0.1322 0.9110
vn 0.7778 -0.6283 -0.0157
vn 0.9905 -0.1375 -0.0033
vn 0.9906 -0.1369 -0.0033
vn 0.7802 -0.6254 -0.0157
vn 0.7923 -0.6099 -0.0153
vn 0.9910 -0.1338 -0.0032
vn -1.0000 -0.0000 -0.0000
vn -0.0444 0.9990 -0.0000
vn -0.4804 0.8771 -0.0000
vn -0.0000 -0.2973 -0.9548
vn -0.0000 0.9993 0.0371
vn -0.0000 0.1736 0.9848
vn -0.0000 0.6076 -0.7943
vn -0.7650 -0.4952 -0.4118
vn -0.7765 0.6301 -0.0000
vn -0.9904 0.1379 -0.0000
vn 0.1503 -0.8989 0.4115
vn 0.5293 -0.7583 0.3805
vn -0.7765 0.2089 0.5944
vn -0.9904 0.0457 0.1301
vn -0.9904 -0.0457 -0.1301
vn -0.4754 -0.2610 -0.8402
vn -0.9831 -0.1795 -0.0349
vn -0.9908 -0.0242 -0.1334
vn -0.7649 -0.1143 -0.6339
vn -0.9904 -0.1378 -0.0051
vn -0.7765 -0.6296 -0.0234
vn -0.3907 0.1322 0.9110
vn -0.7778 -0.6283 -0.0157
vn -0.9905 -0.1375 -0.0033
vn -0.9906 -0.1369 -0.0033
vn -0.7802 -0.6254 -0.0157
vn -0.7923 -0.6099 -0.0153
vn -0.9910 -0.1338 -0.0032
vn 0.0444 0.9990 -0.0000
vn 0.4804 0.8771 -0.0000
vt 0.650157 0.934311
vt 0.487445 0.934311
vt 0.665695 0.747152
vt 0.665695 0.839594
vt 0.661876 0.891862
vt 0.652654 0.913512
vt 0.621571 0.913512
vt 0.613034 0.913512
vt 0.613034 0.747152
vt 0.318285 0.763028
vt 0.363902 0.622157
vt 0.261998 0.622157
vt 0.261998 0.763028
vt 0.243828 0.678706
vt 0.200784 0.713334
vt 0.160370 0.741878
vt 0.812111 0.741907
vt 0.813415 0.848807
vt 0.641680 0.848807
vt 0.633984 0.735156
vt 0.368209 0.538432
vt 0.424382 0.574296
vt 0.440381 0.665630
vt 0.238549 0.720589
vt 0.216154 0.726687
vt 0.262495 0.658353
vt 0.615324 0.672498
vt 0.624306 0.673569
vt 0.269574 0.754724
vt 0.340399 0.754724
vt 0.356857 0.742384
vt 0.363674 0.712592
vt 0.363674 0.582931
vt 0.360636 0.569654
vt 0.353302 0.564155
vt 0.269574 0.564155
vt 0.297678 0.689136
vt 0.338067 0.687686
vt 0.378457 0.686237
vt 0.377838 0.631723
vt 0.303500 0.634390
vt 0.297189 0.646081
vt 0.397830 0.506137
vt 0.410100 0.492760
vt 0.425854 0.493800
vt 0.441622 0.511657
vt 0.434082 0.551755
vt 0.224693 0.563224
vt 0.235372 0.563224
vt 0.223104 0.566707
vt 0.290627 0.145774
vt 0.153331 0.187248
vt 0.222547 0.848807
vt 0.160370 0.848807
vt 0.814851 0.934311
vt 0.225531 0.934311
vt 0.160370 0.934311
vt 0.160370 0.909268
vt 0.224656 0.909268
vt 0.647674 0.909268
vt 0.814431 0.909268
vt 0.483059 0.909268
vt 0.472468 0.848807
vt 0.249296 0.672744
vt 0.131533 0.191764
vt 0.137918 0.190441
vt 0.320570 0.346511
vt 0.372026 0.617738
vt 0.281513 0.672008
vt 0.230058 0.400781
vt 0.325213 0.138609
vt 0.339539 0.135640
vt 0.180284 0.291709
vt 0.252369 0.608948
vt 0.382216 0.515698
vt 0.310131 0.198459
vt 0.591396 0.672148
vt 0.611646 0.646162
vt 0.612522 0.542963
vt 0.623841 0.508388
vt 0.622994 0.648625
vt 0.628530 0.494067
vt 0.627203 0.650418
vt 0.590001 0.492671
vt 0.490275 0.488153
vt 0.495413 0.469403
vt 0.603135 0.474284
vt 0.484668 0.461054
vt 0.608575 0.466668
vt 0.347724 0.632804
vt 0.348343 0.687318
vt 0.386925 0.685933
vt 0.386306 0.631419
vt 0.629461 0.692184
vt 0.826893 0.682314
vt 0.848444 0.683245
vt 0.848444 0.700829
vt 0.827388 0.699998
vt 0.848444 0.743284
vt 0.827823 0.742502
vt 0.360982 0.648825
vt 0.351059 0.649025
vt 0.343498 0.649178
vt 0.257778 0.650906
vt 0.258498 0.722062
vt 0.259120 0.783447
vt 0.310716 0.781796
vt 0.362312 0.780144
vt 0.811345 0.699365
vt 0.810472 0.681605
vt 0.848444 0.909268
vt 0.829140 0.909268
vt 0.828563 0.848807
vt 0.848444 0.848807
vt 0.848444 0.934311
vt 0.829379 0.934311
vt 0.814851 0.971408
vt 0.829379 0.971408
vt 0.829379 0.972064
vt 0.814851 0.972064
vt 0.616183 0.879487
vt 0.616183 0.802508
vt 0.627953 0.802508
vt 0.627749 0.879487
vt 0.645580 0.859311
vt 0.660108 0.859311
vt 0.660108 0.897064
vt 0.645580 0.897064
vt 0.627953 0.879487
vt 0.639519 0.802508
vt 0.639724 0.879487
vt 0.251689 0.934311
vt 0.250464 0.909268
vt 0.247507 0.848807
vt 0.646371 0.838499
vt 0.592712 0.838499
vt 0.592712 0.861137
vt 0.646371 0.878696
vt 0.299264 0.728077
vt 0.299264 0.717775
vt 0.273106 0.717775
vt 0.273106 0.728077
vt 0.199112 0.938353
vt 0.211139 0.938353
vt 0.211139 0.961938
vt 0.199112 0.961938
vt 0.344326 0.750368
vt 0.344326 0.712595
vt 0.264008 0.712595
vt 0.264008 0.750368
vt 0.351281 0.567896
vt 0.351281 0.695371
vt 0.298719 0.695371
vt 0.298719 0.567896
vt 0.351281 0.653512
vt 0.351281 0.707770
vt 0.298719 0.707770
vt 0.298719 0.653512
vt 0.222446 0.575115
vt 0.222446 0.596013
vt 0.223383 0.607987
vt 0.225647 0.612947
vt 0.233276 0.612947
vt 0.235372 0.612947
s 0
usemtl Gun_Model
f 74/1/1 9/1/1 7/2/1 71/2/1
f 1/3/2 15/4/2 17/5/2 16/6/2 72/7/2 5/8/2 10/9/2
f 44/10/3 2/11/3 98/12/3 101/13/3
f 30/14/4 32/15/4 1/16/4 10/16/4 6/14/4
f 67/17/5 69/18/5 25/19/5 53/20/5
f 37/21/5 39/22/5 2/23/5 81/24/5 87/25/5 1/16/5 32/15/5 31/26/5
f 54/27/6 45/28/6 52/28/6
f 8/29/7 34/30/7 36/31/7 35/32/7 27/33/7 29/34/7 28/35/7 4/36/7
f 12/37/8 93/38/8 13/39/8 42/40/8 46/41/8 38/42/8
f 37/21/9 40/43/9 38/44/9 46/45/9 48/46/9 47/47/9 39/22/9
f 50/48/10 11/49/10 51/50/10
f 35/51/5 37/21/5 31/26/5 27/52/5
f 87/25/5 92/53/5 15/54/5 1/16/5
f 76/55/1 64/55/1 9/1/1 74/1/1
f 89/56/11 16/57/11 17/58/11 91/59/11
f 91/59/12 17/58/12 15/54/12 92/53/12
f 65/55/11 24/1/11 26/60/11 68/61/11
f 68/61/12 26/60/12 25/19/12 69/18/12
f 24/1/11 22/2/11 23/62/11 26/60/11
f 26/60/12 23/62/12 21/63/12 25/19/12
f 90/56/1 88/56/1 5/57/1 72/57/1
f 30/14/13 33/64/13 32/15/13
f 33/64/14 31/26/14 32/15/14
f 30/14/15 28/65/15 29/66/15 33/64/15
f 33/64/16 29/66/16 27/52/16 31/26/16
f 28/67/17 30/68/17 6/69/17 4/70/17
f 37/21/18 35/51/18 36/71/18 40/43/18
f 40/43/19 36/71/19 34/72/19 38/44/19
f 8/73/20 12/74/20 38/75/20 34/76/20
f 44/77/21 54/27/21 53/20/21 25/19/21 21/63/21 2/23/21
f 44/78/22 41/79/22 43/80/22 54/81/22
f 54/81/23 43/80/23 42/82/23 45/83/23
f 41/84/24 47/85/24 48/86/24 43/87/24
f 43/87/25 48/86/25 46/88/25 42/89/25
f 42/90/26 13/91/26 14/92/26 45/93/26
f 52/28/27 55/94/27 53/20/27 54/27/27
f 61/95/28 50/96/28 51/97/28 62/98/28
f 62/98/29 51/97/29 49/99/29 63/100/29
f 50/101/3 61/102/3 70/103/3 52/104/3 45/105/3 14/106/3 56/107/3 11/108/3
f 66/109/30 62/98/30 63/100/30 67/17/30
f 70/110/31 61/95/31 62/98/31 66/109/31
f 20/111/12 59/112/12 60/113/12 19/114/12
f 18/115/11 58/116/11 59/112/11 20/111/11
f 73/115/1 3/115/1 57/116/1 75/116/1
f 49/99/5 19/114/5 60/113/5 63/100/5
f 52/28/32 70/110/32 66/109/32 55/94/32
f 55/94/33 66/109/33 67/17/33 53/20/33
f 59/112/12 68/61/12 69/18/12 60/113/12
f 58/116/11 65/55/11 68/61/11 59/112/11
f 57/116/34 64/55/34 78/117/34 77/118/34
f 63/100/5 60/113/5 69/18/5 67/17/5
f 58/116/1 75/116/1 76/55/1 65/55/1
f 18/115/1 73/115/1 75/116/1 58/116/1
f 89/56/1 90/56/1 72/57/1 16/57/1
f 65/55/1 76/55/1 74/1/1 24/1/1
f 24/1/1 74/1/1 71/2/1 22/2/1
f 79/119/35 77/118/35 78/117/35 80/120/35
f 64/121/2 76/122/2 80/123/2 78/124/2
f 76/125/5 75/126/5 79/127/5 80/128/5
f 75/129/10 57/123/10 77/130/10 79/131/10
f 22/2/1 71/2/1 86/132/1 83/132/1
f 71/2/1 7/2/1 82/132/1 86/132/1
f 23/62/12 84/133/12 85/134/12 21/63/12
f 22/2/11 83/132/11 84/133/11 23/62/11
f 2/23/5 21/63/5 85/134/5 81/24/5
f 83/132/1 86/132/1 90/56/1 89/56/1
f 86/135/10 82/136/10 94/137/10 95/138/10
f 84/133/12 91/59/12 92/53/12 85/134/12
f 83/132/11 89/56/11 91/59/11 84/133/11
f 81/24/5 85/134/5 92/53/5 87/25/5
f 95/139/36 94/140/36 96/141/36 97/142/36
f 88/136/2 90/135/2 97/138/2 96/137/2
f 90/143/5 86/144/5 95/145/5 97/146/5
f 2/147/37 39/148/37 99/149/37 98/150/37
f 47/151/38 41/152/38 100/153/38 102/154/38
f 41/155/39 44/156/39 101/157/39 100/158/39
f 49/159/10 51/50/10 11/49/10
f 11/49/10 19/160/10 49/159/10
f 11/49/10 20/161/10 19/160/10
f 20/161/10 11/49/10 18/162/10
f 73/163/10 18/162/10 11/49/10
f 3/164/10 73/163/10 11/49/10
f 47/151/40 102/154/40 99/149/40 39/148/40
f 161/1/1 158/2/1 7/2/1 9/1/1
f 103/3/2 10/9/2 5/8/2 159/7/2 106/6/2 107/5/2 105/4/2
f 134/10/3 101/13/3 98/12/3 104/11/3
f 120/14/4 6/14/4 10/16/4 103/16/4 122/15/4
f 154/17/34 143/20/34 115/19/34 156/18/34
f 127/21/34 121/26/34 122/15/34 103/16/34 171/25/34 166/24/34 104/23/34 129/22/34
f 144/27/6 142/28/6 135/28/6
f 8/29/7 4/36/7 118/35/7 119/34/7 117/33/7 125/32/7 126/31/7 124/30/7
f 12/37/8 128/42/8 136/41/8 132/40/8 13/39/8 93/38/8
f 127/21/41 129/22/41 137/47/41 138/46/41 136/45/41 128/44/41 130/43/41
f 140/48/10 141/50/10 11/49/10
f 125/51/34 117/52/34 121/26/34 127/21/34
f 171/25/34 103/16/34 105/54/34 175/53/34
f 163/55/1 161/1/1 9/1/1 64/55/1
f 172/56/42 174/59/42 107/58/42 106/57/42
f 174/59/43 175/53/43 105/54/43 107/58/43
f 152/55/42 155/61/42 116/60/42 114/1/42
f 155/61/43 156/18/43 115/19/43 116/60/43
f 114/1/42 116/60/42 113/62/42 112/2/42
f 116/60/43 115/19/43 111/63/43 113/62/43
f 173/56/1 159/57/1 5/57/1 88/56/1
f 120/14/44 122/15/44 123/64/44
f 123/64/45 122/15/45 121/26/45
f 120/14/46 123/64/46 119/66/46 118/65/46
f 123/64/47 121/26/47 117/52/47 119/66/47
f 118/67/17 4/70/17 6/69/17 120/68/17
f 127/21/48 130/43/48 126/71/48 125/51/48
f 130/43/49 128/44/49 124/72/49 126/71/49
f 8/73/20 124/76/20 128/75/20 12/74/20
f 134/77/50 104/23/50 111/63/50 115/19/50 143/20/50 144/27/50
f 134/78/51 144/81/51 133/80/51 131/79/51
f 144/81/52 135/83/52 132/82/52 133/80/52
f 131/84/53 133/87/53 138/86/53 137/85/53
f 133/87/54 132/89/54 136/88/54 138/86/54
f 132/90/26 135/93/26 14/92/26 13/91/26
f 142/28/55 144/27/55 143/20/55 145/94/55
f 149/95/56 150/98/56 141/97/56 140/96/56
f 150/98/57 151/100/57 139/99/57 141/97/57
f 140/101/3 11/108/3 56/107/3 14/106/3 135/105/3 142/104/3 157/103/3 149/102/3
f 153/109/58 154/17/58 151/100/58 150/98/58
f 157/110/59 153/109/59 150/98/59 149/95/59
f 110/111/43 109/114/43 148/113/43 147/112/43
f 108/115/42 110/111/42 147/112/42 146/116/42
f 160/115/1 162/116/1 57/116/1 3/115/1
f 139/99/34 151/100/34 148/113/34 109/114/34
f 142/28/60 145/94/60 153/109/60 157/110/60
f 145/94/61 143/20/61 154/17/61 153/109/61
f 147/112/43 148/113/43 156/18/43 155/61/43
f 146/116/42 147/112/42 155/61/42 152/55/42
f 151/100/34 154/17/34 156/18/34 148/113/34
f 146/116/1 152/55/1 163/55/1 162/116/1
f 108/115/1 146/116/1 162/116/1 160/115/1
f 172/56/1 106/57/1 159/57/1 173/56/1
f 152/55/1 114/1/1 161/1/1 163/55/1
f 114/1/1 112/2/1 158/2/1 161/1/1
f 164/119/62 165/120/62 78/117/62 77/118/62
f 64/121/2 78/124/2 165/123/2 163/122/2
f 163/125/34 165/128/34 164/127/34 162/126/34
f 162/129/10 164/131/10 77/130/10 57/123/10
f 112/2/1 167/132/1 170/132/1 158/2/1
f 158/2/1 170/132/1 82/132/1 7/2/1
f 113/62/43 111/63/43 169/134/43 168/133/43
f 112/2/42 113/62/42 168/133/42 167/132/42
f 104/23/34 166/24/34 169/134/34 111/63/34
f 167/132/1 172/56/1 173/56/1 170/132/1
f 170/135/10 176/138/10 94/137/10 82/136/10
f 168/133/43 169/134/43 175/53/43 174/59/43
f 167/132/42 168/133/42 174/59/42 172/56/42
f 166/24/34 171/25/34 175/53/34 169/134/34
f 176/139/63 177/142/63 96/141/63 94/140/63
f 88/136/2 96/137/2 177/138/2 173/135/2
f 173/143/34 177/146/34 176/145/34 170/144/34
f 104/147/37 98/150/37 99/149/37 129/148/37
f 137/151/38 102/154/38 100/153/38 131/152/38
f 131/155/39 100/158/39 101/157/39 134/156/39
f 139/159/10 11/49/10 141/50/10
f 11/49/10 139/159/10 109/160/10
f 11/49/10 109/160/10 110/161/10
f 110/161/10 108/162/10 11/49/10
f 160/163/10 11/49/10 108/162/10
f 3/164/10 11/49/10 160/163/10
f 137/151/40 129/148/40 99/149/40 102/154/40
