# Blender 4.3.2
# www.blender.org
mtllib Clown Car.mtl
o Car
v 0.000000 0.655932 -0.506063
v 0.000000 0.655932 0.529891
v 0.441413 0.146191 0.466433
v 0.383699 0.716622 0.358793
v 0.441413 0.146191 -0.422564
v 0.383699 0.740669 -0.516845
v 0.000000 0.146191 -0.422564
v 0.000000 0.740669 -0.516845
v 0.000000 0.146191 0.466433
v 0.000000 0.716622 0.358793
v 0.000000 0.655932 -1.051871
v 0.000000 0.655932 -0.778967
v 0.441413 0.401061 -0.523478
v 0.000000 0.401061 -0.523478
v 0.260131 0.452591 -1.029207
v 0.000000 0.452591 -1.029207
v 0.441413 0.401061 -0.778967
v 0.000000 0.401061 -0.778967
v 0.000000 0.592950 0.798352
v 0.441413 0.401061 0.857660
v 0.000000 0.401061 0.857660
v 0.441413 0.377470 0.521848
v 0.441413 0.451314 0.460488
v 0.441413 0.535426 0.536279
v 0.441413 0.441867 0.619507
v 0.441413 0.431378 0.511611
v 0.441413 0.453544 0.537655
v 0.441413 0.477643 0.515837
v 0.441413 0.474876 0.562413
v 0.441413 0.428612 0.558186
v 0.000000 0.146191 0.466433
v 0.000000 0.401061 0.857660
v 0.000000 0.377470 0.521848
v 0.000000 0.441867 0.619507
v 0.000000 0.428612 0.558186
v 0.406419 0.667515 0.529891
v 0.425102 0.638761 0.530863
v 0.418417 0.654864 0.530176
v 0.424174 0.638638 -0.399884
v 0.408376 0.670036 -0.506063
v 0.418719 0.655567 -0.474964
v 0.222118 0.657245 -1.051871
v 0.242649 0.638614 -1.049802
v 0.235908 0.651813 -1.051265
v 0.423580 0.638584 -0.778967
v 0.403401 0.657245 -0.778967
v 0.417088 0.651804 -0.778967
v 0.393876 0.575653 0.770454
v 0.373133 0.594263 0.798352
v 0.393308 0.575675 0.800001
v 0.386985 0.588838 0.790181
v 0.000000 0.452591 -1.029207
v 0.000000 0.401061 -0.778967
v 0.000000 0.401061 -0.523478
v 0.000000 0.401061 -0.778967
v 0.000000 0.146191 -0.422564
v 0.000000 0.401061 -0.523478
v -0.441413 0.146191 0.466433
v -0.383699 0.716622 0.358793
v -0.441413 0.146191 -0.422564
v -0.383699 0.740669 -0.516845
v -0.441413 0.401061 -0.523478
v -0.260131 0.452591 -1.029207
v -0.441413 0.401061 -0.778967
v -0.441413 0.401061 0.857660
v -0.441413 0.377470 0.521848
v -0.441413 0.451314 0.460488
v -0.441413 0.535426 0.536279
v -0.441413 0.441867 0.619507
v -0.441413 0.431378 0.511611
v -0.441413 0.453544 0.537655
v -0.441413 0.477643 0.515837
v -0.441413 0.474876 0.562413
v -0.441413 0.428612 0.558186
v -0.406419 0.667515 0.529891
v -0.425102 0.638761 0.530863
v -0.418417 0.654864 0.530176
v -0.424174 0.638638 -0.399884
v -0.408376 0.670036 -0.506063
v -0.418719 0.655567 -0.474964
v -0.222118 0.657245 -1.051871
v -0.242649 0.638614 -1.049802
v -0.235908 0.651813 -1.051265
v -0.423580 0.638584 -0.778967
v -0.403401 0.657245 -0.778967
v -0.417088 0.651804 -0.778967
v -0.393876 0.575653 0.770454
v -0.373133 0.594263 0.798352
v -0.393308 0.575675 0.800001
v -0.386985 0.588838 0.790181
vn -0.0042 1.0000 0.0014
vn 0.9757 0.1309 0.1756
vn -1.0000 -0.0000 -0.0000
vn -0.0000 -1.0000 -0.0000
vn -0.0000 0.9996 0.0275
vn 0.9265 0.3761 0.0062
vn 0.0024 -0.1371 -0.9906
vn 0.0042 0.2958 0.9552
vn 0.8223 0.0410 -0.5676
vn 0.9973 0.0739 -0.0009
vn 0.9976 0.0686 -0.0051
vn 0.0003 -0.1104 -0.9939
vn 0.9617 0.2669 0.0622
vn -0.0140 0.9518 0.3063
vn 1.0000 -0.0000 -0.0000
vn 0.9948 0.1014 -0.0071
vn -0.0190 0.9995 -0.0233
vn -0.0000 -0.2330 0.9725
vn -0.0000 -0.5792 0.8152
vn -0.0000 -0.9774 0.2113
vn -0.0000 -0.9856 -0.1689
vn 0.8963 0.4431 0.0169
vn 0.5582 0.6515 0.5138
vn 0.7708 0.6371 0.0019
vn 0.9388 0.3445 -0.0002
vn 0.6598 0.7509 -0.0291
vn 0.9339 0.3575 -0.0050
vn 0.3617 0.9008 -0.2405
vn 0.7762 0.3601 -0.5175
vn 0.6058 0.7479 0.2713
vn 0.9321 0.3048 0.1957
vn -0.0160 0.9694 0.2450
vn -0.0000 -0.9794 -0.2017
vn -0.0000 -0.3681 -0.9298
vn 0.0042 1.0000 0.0014
vn -0.9757 0.1309 0.1756
vn -0.9265 0.3761 0.0062
vn -0.0024 -0.1371 -0.9906
vn -0.0042 0.2958 0.9552
vn -0.8223 0.0410 -0.5676
vn -0.9973 0.0739 -0.0009
vn -0.9976 0.0686 -0.0051
vn -0.0003 -0.1104 -0.9939
vn -0.9617 0.2669 0.0622
vn 0.0140 0.9518 0.3063
vn -0.9948 0.1014 -0.0071
vn 0.0190 0.9995 -0.0233
vn -0.8963 0.4431 0.0169
vn -0.5582 0.6515 0.5138
vn -0.7708 0.6371 0.0019
vn -0.9388 0.3445 -0.0002
vn -0.6598 0.7509 -0.0291
vn -0.9339 0.3575 -0.0050
vn -0.3617 0.9008 -0.2405
vn -0.7762 0.3601 -0.5175
vn -0.6058 0.7479 0.2713
vn -0.9321 0.3048 0.1957
vn 0.0160 0.9694 0.2450
vt 0.413670 0.854239
vt 0.413670 0.854463
vt 0.460132 0.854463
vt 0.460132 0.854239
vt 0.100272 0.840572
vt 0.144182 0.823414
vt 0.160140 0.833723
vt 0.161062 0.851316
vt 0.413670 0.810847
vt 0.456273 0.819620
vt 0.333948 0.762078
vt 0.157082 0.762078
vt 0.354094 0.889106
vt 0.166987 0.883968
vt 0.351790 0.874013
vt 0.143523 0.873474
vt 0.367207 0.854239
vt 0.346026 0.862316
vt 0.346026 0.869459
vt 0.367207 0.856640
vt 0.453725 0.821898
vt 0.450295 0.855470
vt 0.446417 0.859044
vt 0.368858 0.858791
vt 0.368858 0.821898
vt 0.413670 0.851286
vt 0.459779 0.851291
vt 0.319522 0.851295
vt 0.355998 0.810847
vt 0.355511 0.816538
vt 0.329101 0.867304
vt 0.146526 0.832902
vt 0.158353 0.827276
vt 0.380905 0.823519
vt 0.380905 0.860858
vt 0.454979 0.861099
vt 0.457511 0.860101
vt 0.458749 0.857678
vt 0.461959 0.823519
vt 0.134462 0.817795
vt 0.095241 0.840575
vt 0.085425 0.810847
vt 0.161228 0.856211
vt 0.167340 0.865365
vt 0.167340 0.858222
vt 0.161228 0.854239
vt 0.151088 0.806831
vt 0.152831 0.816009
vt 0.148397 0.819782
vt 0.144902 0.815538
vt 0.161535 0.819403
vt 0.152112 0.823885
vt 0.147429 0.823017
vt 0.145241 0.811497
vt 0.143315 0.867330
vt 0.142158 0.845250
vt 0.157745 0.767455
vt 0.096913 0.842816
vt 0.095522 0.843740
vt 0.143462 0.870771
vt 0.345145 0.870921
vt 0.361913 0.854177
vt 0.413670 0.853536
vt 0.460028 0.853538
vt 0.161179 0.854057
vt 0.469690 0.543148
vt 0.469690 0.542979
vt 0.464042 0.542057
vt 0.464042 0.542076
vt 0.328210 0.766825
s 0
usemtl Clown_Car
f 12/1/1 46/2/1 42/3/1 11/4/1
f 48/5/2 29/6/2 24/7/2 37/8/2
f 18/9/3 12/1/3 11/4/3 16/10/3
f 7/11/4 5/11/4 3/12/4 9/12/4
f 6/13/5 8/13/5 10/14/5 4/14/5
f 40/15/6 6/13/6 4/14/6 36/16/6
f 1/17/7 8/18/7 6/19/7 40/20/7
f 20/21/8 50/22/8 49/23/8 19/24/8 21/25/8
f 45/26/9 17/9/9 15/10/9 43/27/9
f 39/28/10 13/29/10 17/9/10 45/26/10
f 14/29/3 1/17/3 12/1/3 18/9/3
f 13/30/11 39/31/11 28/32/11 23/33/11
f 16/34/12 11/35/12 42/36/12 44/37/12 43/38/12 15/39/12
f 25/40/13 29/6/13 48/5/13 50/41/13 20/42/13
f 36/43/14 4/44/14 10/45/14 2/46/14
f 22/47/15 26/48/15 27/49/15 30/50/15
f 23/51/15 28/52/15 27/49/15 26/48/15
f 24/7/15 29/6/15 27/49/15 28/52/15
f 25/40/15 30/50/15 27/49/15 29/6/15
f 5/11/15 26/53/15 22/54/15 3/12/15
f 28/32/16 39/31/16 37/55/16 24/56/16
f 1/17/17 40/20/17 46/2/17 12/1/17
f 26/53/15 5/11/15 13/30/15 23/33/15
f 3/57/18 22/47/18 33/47/18 31/57/18
f 22/47/19 30/50/19 35/50/19 33/47/19
f 30/50/20 25/40/20 34/40/20 35/50/20
f 25/40/21 20/42/21 32/42/21 34/40/21
f 48/5/22 51/58/22 50/41/22
f 51/58/23 49/59/23 50/41/23
f 40/15/24 36/16/24 38/60/24 41/61/24
f 41/61/25 38/60/25 37/55/25 39/31/25
f 46/2/26 40/20/26 41/62/26 47/63/26
f 47/63/27 41/62/27 39/28/27 45/26/27
f 42/3/28 46/2/28 47/63/28 44/64/28
f 44/64/29 47/63/29 45/26/29 43/27/29
f 36/43/30 49/59/30 51/58/30 38/65/30
f 38/65/31 51/58/31 48/5/31 37/8/31
f 36/66/32 2/67/32 19/68/32 49/69/32
f 15/10/33 17/9/33 53/9/33 52/10/33
f 17/9/4 13/29/4 54/29/4 55/9/4
f 13/29/34 5/70/34 56/70/34 57/29/34
f 12/1/35 11/4/35 81/3/35 85/2/35
f 87/5/36 76/8/36 68/7/36 73/6/36
f 7/11/4 9/12/4 58/12/4 60/11/4
f 61/13/5 59/14/5 10/14/5 8/13/5
f 79/15/37 75/16/37 59/14/37 61/13/37
f 1/17/38 79/20/38 61/19/38 8/18/38
f 65/21/39 21/25/39 19/24/39 88/23/39 89/22/39
f 84/26/40 82/27/40 63/10/40 64/9/40
f 78/28/41 84/26/41 64/9/41 62/29/41
f 62/30/42 67/33/42 72/32/42 78/31/42
f 16/34/43 63/39/43 82/38/43 83/37/43 81/36/43 11/35/43
f 69/40/44 65/42/44 89/41/44 87/5/44 73/6/44
f 75/43/45 2/46/45 10/45/45 59/44/45
f 66/47/3 74/50/3 71/49/3 70/48/3
f 67/51/3 70/48/3 71/49/3 72/52/3
f 68/7/3 72/52/3 71/49/3 73/6/3
f 69/40/3 73/6/3 71/49/3 74/50/3
f 60/11/3 58/12/3 66/54/3 70/53/3
f 72/32/46 68/56/46 76/55/46 78/31/46
f 1/17/47 12/1/47 85/2/47 79/20/47
f 70/53/3 67/33/3 62/30/3 60/11/3
f 58/57/18 31/57/18 33/47/18 66/47/18
f 66/47/19 33/47/19 35/50/19 74/50/19
f 74/50/20 35/50/20 34/40/20 69/40/20
f 69/40/21 34/40/21 32/42/21 65/42/21
f 87/5/48 89/41/48 90/58/48
f 90/58/49 89/41/49 88/59/49
f 79/15/50 80/61/50 77/60/50 75/16/50
f 80/61/51 78/31/51 76/55/51 77/60/51
f 85/2/52 86/63/52 80/62/52 79/20/52
f 86/63/53 84/26/53 78/28/53 80/62/53
f 81/3/54 83/64/54 86/63/54 85/2/54
f 83/64/55 82/27/55 84/26/55 86/63/55
f 75/43/56 77/65/56 90/58/56 88/59/56
f 77/65/57 76/8/57 87/5/57 90/58/57
f 75/66/58 88/69/58 19/68/58 2/67/58
f 63/10/33 52/10/33 53/9/33 64/9/33
f 64/9/4 55/9/4 54/29/4 62/29/4
f 62/29/34 57/29/34 56/70/34 60/70/34
l 14 7
o Wheels
v 0.474180 0.207716 0.492001
v 0.474180 0.086040 0.536287
v 0.474180 0.021298 0.648424
v 0.474180 0.043783 0.775941
v 0.474180 0.142973 0.859172
v 0.474180 0.272458 0.859172
v 0.474180 0.371649 0.775941
v 0.474180 0.394133 0.648424
v 0.474180 0.329391 0.536287
v 0.384859 0.207716 0.492001
v 0.384859 0.086040 0.536287
v 0.384859 0.021298 0.648424
v 0.384859 0.043783 0.775941
v 0.384859 0.142973 0.859172
v 0.384859 0.272458 0.859172
v 0.384859 0.371649 0.775941
v 0.384859 0.394133 0.648424
v 0.384859 0.329391 0.536287
v -0.474180 0.207716 0.492001
v -0.474180 0.086040 0.536287
v -0.474180 0.021298 0.648424
v -0.474180 0.043783 0.775941
v -0.474180 0.142973 0.859172
v -0.474180 0.272458 0.859172
v -0.474180 0.371649 0.775941
v -0.474180 0.394133 0.648424
v -0.474180 0.329391 0.536287
v -0.384859 0.207716 0.492001
v -0.384859 0.086040 0.536287
v -0.384859 0.021298 0.648424
v -0.384859 0.043783 0.775941
v -0.384859 0.142973 0.859172
v -0.384859 0.272458 0.859172
v -0.384859 0.371649 0.775941
v -0.384859 0.394133 0.648424
v -0.384859 0.329391 0.536287
v 0.474180 0.207716 -0.492001
v 0.474180 0.086040 -0.536287
v 0.474180 0.021298 -0.648424
v 0.474180 0.043783 -0.775941
v 0.474180 0.142973 -0.859172
v 0.474180 0.272458 -0.859172
v 0.474180 0.371649 -0.775941
v 0.474180 0.394133 -0.648424
v 0.474180 0.329391 -0.536287
v 0.384859 0.207716 -0.492001
v 0.384859 0.086040 -0.536287
v 0.384859 0.021298 -0.648424
v 0.384859 0.043783 -0.775941
v 0.384859 0.142973 -0.859172
v 0.384859 0.272458 -0.859172
v 0.384859 0.371649 -0.775941
v 0.384859 0.394133 -0.648424
v 0.384859 0.329391 -0.536287
v -0.474180 0.207716 -0.492001
v -0.474180 0.086040 -0.536287
v -0.474180 0.021298 -0.648424
v -0.474180 0.043783 -0.775941
v -0.474180 0.142973 -0.859172
v -0.474180 0.272458 -0.859172
v -0.474180 0.371649 -0.775941
v -0.474180 0.394133 -0.648424
v -0.474180 0.329391 -0.536287
v -0.384859 0.207716 -0.492001
v -0.384859 0.086040 -0.536287
v -0.384859 0.021298 -0.648424
v -0.384859 0.043783 -0.775941
v -0.384859 0.142973 -0.859172
v -0.384859 0.272458 -0.859172
v -0.384859 0.371649 -0.775941
v -0.384859 0.394133 -0.648424
v -0.384859 0.329391 -0.536287
vn 0.6376 -0.0000 -0.7704
vn 0.6376 -0.4952 -0.5901
vn 0.6376 -0.7587 -0.1338
vn 0.6376 -0.6672 0.3852
vn 0.6376 -0.2635 0.7239
vn 0.6376 0.2635 0.7239
vn 0.6376 0.6672 0.3852
vn 0.6376 0.7587 -0.1338
vn 0.6376 0.4952 -0.5901
vn -0.6376 -0.0000 -0.7704
vn -0.6376 -0.4952 -0.5901
vn -0.6376 -0.7587 -0.1338
vn -0.6376 -0.6672 0.3852
vn -0.6376 -0.2635 0.7239
vn -0.6376 0.2635 0.7239
vn -0.6376 0.6672 0.3852
vn -0.6376 0.7587 -0.1338
vn -0.6376 0.4952 -0.5901
vn 0.6376 -0.0000 0.7704
vn 0.6376 -0.4952 0.5901
vn 0.6376 -0.7587 0.1338
vn 0.6376 -0.6672 -0.3852
vn 0.6376 -0.2635 -0.7239
vn 0.6376 0.2635 -0.7239
vn 0.6376 0.6672 -0.3852
vn 0.6376 0.7587 0.1338
vn 0.6376 0.4952 0.5901
vn -0.6376 -0.0000 0.7704
vn -0.6376 -0.4952 0.5901
vn -0.6376 -0.7587 0.1338
vn -0.6376 -0.6672 -0.3852
vn -0.6376 -0.2635 -0.7239
vn -0.6376 0.2635 -0.7239
vn -0.6376 0.6672 -0.3852
vn -0.6376 0.7587 0.1338
vn -0.6376 0.4952 0.5901
vt 0.559238 0.470174
vt 0.574243 0.470174
vt 0.574243 0.449735
vt 0.559238 0.449735
vt 0.574243 0.438860
vt 0.559238 0.438860
vt 0.574243 0.442637
vt 0.559238 0.442637
vt 0.574243 0.459299
vt 0.559238 0.459299
vt 0.574243 0.481050
vt 0.559238 0.481050
vt 0.574243 0.497712
vt 0.559238 0.497712
vt 0.574243 0.501489
vt 0.559238 0.501489
vt 0.432760 0.746816
vt 0.439981 0.767509
vt 0.432024 0.788352
vt 0.412461 0.799526
vt 0.390492 0.795642
vt 0.376562 0.778531
vt 0.377200 0.756364
vt 0.391946 0.739556
vt 0.413835 0.735822
vt 0.574243 0.490614
vt 0.559238 0.490614
vt 0.654714 0.790466
vt 0.662431 0.770226
vt 0.655412 0.750128
vt 0.637029 0.739449
vt 0.615777 0.743078
vt 0.601472 0.759406
vt 0.600869 0.780932
vt 0.614402 0.797544
vt 0.635729 0.801315
s 1
usemtl Clown_Car
f 100/71/68 91/72/59 92/73/60 101/74/69
f 101/74/69 92/73/60 93/75/61 102/76/70
f 102/76/70 93/75/61 94/77/62 103/78/71
f 103/78/71 94/77/62 95/79/63 104/80/72
f 104/80/72 95/79/63 96/81/64 105/82/73
f 105/82/73 96/81/64 97/83/65 106/84/74
f 106/84/74 97/83/65 98/85/66 107/86/75
f 92/87/60 91/88/59 99/89/67 98/90/66 97/91/65 96/92/64 95/93/63 94/94/62 93/95/61
f 107/86/75 98/85/66 99/96/67 108/97/76
f 108/97/76 99/96/67 91/72/59 100/71/68
f 108/98/76 100/99/68 101/100/69 102/101/70 103/102/71 104/103/72 105/104/73 106/105/74 107/106/75
f 118/71/59 119/74/60 110/73/69 109/72/68
f 119/74/60 120/76/61 111/75/70 110/73/69
f 120/76/61 121/78/62 112/77/71 111/75/70
f 121/78/62 122/80/63 113/79/72 112/77/71
f 122/80/63 123/82/64 114/81/73 113/79/72
f 123/82/64 124/84/65 115/83/74 114/81/73
f 124/84/65 125/86/66 116/85/75 115/83/74
f 110/87/69 111/95/70 112/94/71 113/93/72 114/92/73 115/91/74 116/90/75 117/89/76 109/88/68
f 125/86/66 126/97/67 117/96/76 116/85/75
f 126/97/67 118/71/59 109/72/68 117/96/76
f 126/98/67 125/106/66 124/105/65 123/104/64 122/103/63 121/102/62 120/101/61 119/100/60 118/99/59
f 136/71/86 137/74/87 128/73/78 127/72/77
f 137/74/87 138/76/88 129/75/79 128/73/78
f 138/76/88 139/78/89 130/77/80 129/75/79
f 139/78/89 140/80/90 131/79/81 130/77/80
f 140/80/90 141/82/91 132/81/82 131/79/81
f 141/82/91 142/84/92 133/83/83 132/81/82
f 142/84/92 143/86/93 134/85/84 133/83/83
f 128/87/78 129/95/79 130/94/80 131/93/81 132/92/82 133/91/83 134/90/84 135/89/85 127/88/77
f 143/86/93 144/97/94 135/96/85 134/85/84
f 144/97/94 136/71/86 127/72/77 135/96/85
f 144/98/94 143/106/93 142/105/92 141/104/91 140/103/90 139/102/89 138/101/88 137/100/87 136/99/86
f 154/71/77 145/72/86 146/73/87 155/74/78
f 155/74/78 146/73/87 147/75/88 156/76/79
f 156/76/79 147/75/88 148/77/89 157/78/80
f 157/78/80 148/77/89 149/79/90 158/80/81
f 158/80/81 149/79/90 150/81/91 159/82/82
f 159/82/82 150/81/91 151/83/92 160/84/83
f 160/84/83 151/83/92 152/85/93 161/86/84
f 146/87/87 145/88/86 153/89/94 152/90/93 151/91/92 150/92/91 149/93/90 148/94/89 147/95/88
f 161/86/84 152/85/93 153/96/94 162/97/85
f 162/97/85 153/96/94 145/72/86 154/71/77
f 162/98/85 154/99/77 155/100/78 156/101/79 157/102/80 158/103/81 159/104/82 160/105/83 161/106/84
o Cube.001
v -0.379830 0.170641 0.680556
v -0.379830 0.501627 0.680556
v -0.379830 0.170641 -0.799282
v -0.379830 0.501627 -0.799282
v 0.379830 0.170641 0.680556
v 0.379830 0.501627 0.680556
v 0.379830 0.170641 -0.799282
v 0.379830 0.501627 -0.799282
vn -1.0000 -0.0000 -0.0000
vn -0.0000 -0.0000 -1.0000
vn 1.0000 -0.0000 -0.0000
vn -0.0000 -0.0000 1.0000
vn -0.0000 -1.0000 -0.0000
vn -0.0000 1.0000 -0.0000
vt 0.116789 0.762580
vt 0.116789 0.828517
vt 0.368337 0.828517
vt 0.368337 0.762580
s 0
usemtl Clown_Car
f 163/107/95 164/108/95 166/109/95 165/110/95
f 165/110/96 166/109/96 170/109/96 169/110/96
f 169/110/97 170/109/97 168/108/97 167/107/97
f 167/107/98 168/108/98 164/108/98 163/107/98
f 165/110/99 169/110/99 167/107/99 163/107/99
f 170/109/100 166/109/100 164/108/100 168/108/100
o Head
v 0.000000 1.170928 0.118648
v 0.000000 0.979386 0.416025
v -0.000000 0.631159 0.067237
v 0.148723 1.467667 0.329499
v 0.045224 0.964692 0.416025
v 0.257596 1.170928 0.175145
v 0.297446 0.765575 0.118648
v 0.073174 0.926222 0.416025
v 0.289000 0.631159 0.130622
v 0.148723 0.334420 0.329499
v -0.073174 0.926222 0.416025
v 0.257596 1.467667 0.418615
v -0.045224 0.964692 0.416025
v 0.446169 1.170928 0.329499
v 0.515191 0.765575 0.296880
v 0.500562 0.631159 0.303793
v 0.073174 0.772360 0.416025
v 0.257596 0.334420 0.418615
v -0.073174 0.772360 0.416025
v 0.297446 1.467667 0.540349
v 0.515191 1.170928 0.540349
v 0.594891 0.765575 0.540349
v 0.578000 0.631159 0.540349
v 0.297446 0.334420 0.540349
v 0.257596 1.467667 0.662084
v 0.446168 1.170928 0.751200
v 0.515191 0.765575 0.783819
v 0.441413 0.631159 0.810416
v 0.257596 0.334420 0.662084
v 0.148723 1.467667 0.751200
v 0.257595 1.170928 0.905553
v 0.297446 0.765575 0.962050
v 0.289000 0.631159 0.950077
v 0.148723 0.334420 0.751200
v 0.000000 1.467667 0.783819
v 0.000000 0.334420 0.783819
v 0.000000 1.546013 0.540349
v -0.148723 1.467667 0.751200
v -0.257596 1.170928 0.905553
v -0.297446 0.765575 0.962050
v -0.289000 0.631159 0.950076
v -0.148723 0.334420 0.751200
v 0.000000 0.250501 0.540349
v -0.257596 1.467667 0.662084
v -0.446169 1.170928 0.751200
v -0.515191 0.765575 0.783819
v -0.515191 0.631159 0.783819
v -0.257596 0.334420 0.662084
v -0.297446 1.467667 0.540349
v -0.515191 1.170928 0.540349
v -0.594891 0.765575 0.540349
v -0.578000 0.631159 0.540349
v -0.297446 0.334420 0.540349
v -0.257596 1.467667 0.418615
v -0.446168 1.170928 0.329499
v -0.515191 0.765575 0.296880
v -0.500562 0.631159 0.303793
v -0.257596 0.334420 0.418615
v -0.148723 1.467667 0.329499
v -0.257595 1.170928 0.175145
v -0.297446 0.765575 0.118648
v -0.289000 0.631159 0.130622
v -0.148723 0.334420 0.329499
v 0.000000 1.467667 0.296880
v 0.000000 0.765575 0.053411
v 0.000000 0.334420 0.296880
v 0.260959 0.973795 0.170377
v 0.451994 0.973795 0.326746
v 0.521918 0.973795 0.540349
v 0.451994 0.973795 0.753953
v -0.451994 0.973795 0.753953
v -0.521918 0.973795 0.540349
v -0.451994 0.973795 0.326746
v -0.260959 0.973795 0.170377
v -0.000000 0.973795 0.113142
v 0.224073 1.319297 0.222672
v 0.388106 1.319297 0.356938
v 0.448146 1.319297 0.540349
v 0.388106 1.319297 0.723761
v 0.224073 1.319297 0.858027
v -0.000000 1.319297 0.907172
v -0.224073 1.319297 0.858027
v -0.388106 1.319297 0.723761
v -0.448146 1.319297 0.540349
v -0.388106 1.319297 0.356938
v -0.224073 1.319297 0.222672
v 0.000000 1.319297 0.173527
v 0.266333 0.433186 0.759342
v 0.266333 0.583211 0.917942
v 0.195412 0.433186 0.817393
v 0.260491 0.980047 0.909658
v 0.266333 0.765575 0.968874
v 0.266333 0.631159 0.955048
v -0.000000 0.433186 0.833317
v 0.048561 1.170928 0.951400
v 0.164603 1.133224 0.927002
v -0.266333 0.765575 0.968874
v -0.266333 0.631159 0.955048
v -0.266333 0.583211 0.917941
v -0.195412 0.433186 0.817393
v -0.164603 1.133224 0.927002
v -0.048561 1.170928 0.951400
v -0.266333 0.433186 0.765264
v -0.266333 0.973795 0.905923
v -0.266333 0.943124 0.917941
v 0.266333 0.943124 0.917941
v -0.000000 1.186706 0.956214
v 0.000000 1.186706 0.956214
vn -0.0000 0.1771 -0.9842
vn -0.0000 -0.5093 0.8606
vn -0.0000 -0.3265 -0.9452
vn 0.2553 0.8019 -0.5402
vn -0.3093 -0.4261 0.8502
vn 0.4199 0.1847 -0.8886
vn 0.4258 0.0841 -0.9009
vn -0.5626 -0.1963 0.8031
vn 0.4019 -0.3393 -0.8505
vn 0.2655 -0.7835 -0.5618
vn 0.5607 -0.1964 0.8044
vn 0.4570 0.8290 -0.3224
vn 0.3065 -0.4281 0.8502
vn 0.8001 0.2032 -0.5644
vn 0.8136 0.0928 -0.5739
vn 0.7592 -0.3700 -0.5355
vn -0.4600 0.2787 0.8430
vn 0.4767 -0.8122 -0.3362
vn 0.4625 0.2826 0.8404
vn 0.5370 0.8436 -0.0000
vn 0.9767 0.2148 -0.0000
vn 0.9980 0.0600 0.0178
vn 0.9058 -0.4220 0.0376
vn 0.5670 -0.8232 0.0293
vn 0.4570 0.8290 0.3224
vn 0.8000 0.2027 0.5648
vn 0.8312 0.0403 0.5545
vn 0.7033 -0.4007 0.5872
vn 0.4922 -0.7975 0.3490
vn 0.2553 0.8019 0.5402
vn 0.4199 0.1837 0.8888
vn 0.4306 0.0720 0.8996
vn 0.4104 -0.3495 0.8423
vn 0.2593 -0.7626 0.5927
vn -0.0000 0.7894 0.6139
vn -0.0000 -0.7235 0.6903
vn -0.0000 1.0000 -0.0000
vn -0.2553 0.8019 0.5402
vn -0.4180 0.1815 0.8902
vn -0.4200 0.0975 0.9023
vn -0.3932 -0.3277 0.8591
vn -0.2415 -0.7650 0.5971
vn -0.0000 -1.0000 -0.0000
vn -0.4570 0.8290 0.3224
vn -0.8001 0.2032 0.5644
vn -0.8112 0.1206 0.5722
vn -0.7675 -0.3442 0.5408
vn -0.4684 -0.8197 0.3297
vn -0.5370 0.8436 -0.0000
vn -0.9767 0.2148 -0.0000
vn -0.9935 0.1140 -0.0079
vn -0.9263 -0.3765 -0.0160
vn -0.5586 -0.8294 -0.0108
vn -0.4570 0.8290 -0.3224
vn -0.8001 0.2032 -0.5644
vn -0.8136 0.0928 -0.5739
vn -0.7592 -0.3700 -0.5355
vn -0.4767 -0.8122 -0.3362
vn -0.2553 0.8019 -0.5402
vn -0.4199 0.1847 -0.8886
vn -0.4258 0.0841 -0.9009
vn -0.4019 -0.3393 -0.8505
vn -0.2655 -0.7835 -0.5618
vn -0.0000 0.7894 -0.6139
vn -0.0000 0.0806 -0.9967
vn -0.0000 -0.7703 -0.6377
vn 0.4217 0.1615 -0.8923
vn 0.8042 0.1778 -0.5672
vn 0.9822 0.1880 -0.0000
vn 0.8040 0.1776 0.5675
vn -0.8042 0.1778 0.5672
vn -0.9822 0.1880 -0.0000
vn -0.8042 0.1778 -0.5672
vn -0.4217 0.1615 -0.8923
vn -0.0000 0.1548 -0.9879
vn 0.3724 0.4903 -0.7880
vn 0.6941 0.5277 -0.4896
vn 0.8352 0.5499 -0.0000
vn 0.6941 0.5277 0.4896
vn 0.3724 0.4903 0.7880
vn -0.0000 0.4744 0.8803
vn -0.3724 0.4903 0.7880
vn -0.6941 0.5277 0.4896
vn -0.8352 0.5499 -0.0000
vn -0.6941 0.5277 -0.4896
vn -0.3724 0.4903 -0.7880
vn -0.0000 0.4744 -0.8803
vn -0.5328 0.2333 0.8134
vn -0.3942 -0.5486 0.7373
vn 0.2512 0.0741 0.9651
vn -0.1250 -0.0754 0.9893
vn -0.3799 0.0172 0.9249
vn -0.3955 -0.2819 0.8741
vn 0.0033 0.1022 0.9948
vn 0.0217 -0.2751 0.9612
vn -0.1621 -0.4313 0.8875
vn 0.3803 0.0232 0.9246
vn 0.3966 -0.2762 0.8755
vn 0.4212 -0.5362 0.7315
vn -0.2246 0.0700 0.9719
vn 0.1529 -0.4361 0.8868
vn -0.0220 -0.2757 0.9610
vn 0.5412 0.2122 0.8136
vn 0.1045 -0.0534 0.9931
vn 0.2645 0.2066 0.9420
vn -0.1964 0.2111 0.9575
vn 0.0992 -0.1653 0.9812
vn 0.1793 -0.4084 0.8950
vt 0.556639 0.113281
vt 0.556639 0.163639
vt 0.531460 0.163639
vt 0.531460 0.113281
vt 0.556639 0.239866
vt 0.556639 0.264356
vt 0.531460 0.264356
vt 0.531460 0.239866
vt 0.556639 0.314715
vt 0.544049 0.365074
vt 0.531460 0.314715
vt 0.544049 0.062922
vt 0.556639 0.213998
vt 0.531460 0.213998
vt 0.556639 0.289536
vt 0.531460 0.289536
vt 0.506280 0.163639
vt 0.506280 0.113281
vt 0.506280 0.264356
vt 0.506280 0.239866
vt 0.518870 0.365074
vt 0.506280 0.314715
vt 0.518870 0.062922
vt 0.506280 0.213998
vt 0.506280 0.289536
vt 0.481101 0.264356
vt 0.481101 0.239866
vt 0.493691 0.365074
vt 0.481101 0.314715
vt 0.493691 0.062922
vt 0.481101 0.113281
vt 0.481101 0.213998
vt 0.481101 0.163639
vt 0.481101 0.289536
vt 0.468512 0.365074
vt 0.455922 0.314715
vt 0.468512 0.062922
vt 0.455922 0.113281
vt 0.455922 0.213998
vt 0.455922 0.163639
vt 0.455922 0.289536
vt 0.455922 0.264356
vt 0.455922 0.239866
vt 0.443332 0.062922
vt 0.430743 0.113281
vt 0.430743 0.213998
vt 0.430743 0.163639
vt 0.430743 0.314715
vt 0.430743 0.289536
vt 0.430743 0.155502
vt 0.444792 0.130307
vt 0.430743 0.130042
vt 0.430743 0.264356
vt 0.431451 0.239866
vt 0.443332 0.365074
vt 0.418153 0.062922
vt 0.405563 0.113281
vt 0.428768 0.163639
vt 0.428109 0.213998
vt 0.405563 0.314715
vt 0.405563 0.289536
vt 0.405563 0.130042
vt 0.410310 0.264356
vt 0.421614 0.259672
vt 0.430743 0.243276
vt 0.418153 0.365074
vt 0.392974 0.062922
vt 0.380384 0.113281
vt 0.380384 0.213998
vt 0.380384 0.163639
vt 0.382359 0.163639
vt 0.383018 0.213998
vt 0.380384 0.314715
vt 0.380384 0.289536
vt 0.380384 0.155502
vt 0.380384 0.130042
vt 0.400817 0.264356
vt 0.380384 0.264356
vt 0.380384 0.243276
vt 0.389512 0.259672
vt 0.392974 0.365074
vt 0.355205 0.213998
vt 0.355205 0.163639
vt 0.355205 0.314715
vt 0.355205 0.289536
vt 0.355205 0.113281
vt 0.368591 0.130315
vt 0.355205 0.264356
vt 0.355205 0.239866
vt 0.367795 0.365074
vt 0.367795 0.062922
vt 0.330026 0.314715
vt 0.330026 0.289536
vt 0.330026 0.163639
vt 0.330026 0.113281
vt 0.330026 0.264356
vt 0.330026 0.239866
vt 0.342615 0.365074
vt 0.342615 0.062922
vt 0.330026 0.213998
vt 0.632177 0.113281
vt 0.632177 0.163639
vt 0.606998 0.163639
vt 0.606998 0.113281
vt 0.632177 0.239866
vt 0.632177 0.264356
vt 0.606998 0.264356
vt 0.606998 0.239866
vt 0.632177 0.314715
vt 0.619587 0.365074
vt 0.606998 0.314715
vt 0.619587 0.062922
vt 0.632177 0.213998
vt 0.606998 0.213998
vt 0.632177 0.289536
vt 0.606998 0.289536
vt 0.581818 0.163639
vt 0.581818 0.113281
vt 0.581818 0.264356
vt 0.581818 0.239866
vt 0.594408 0.365074
vt 0.581818 0.314715
vt 0.594408 0.062922
vt 0.581818 0.213998
vt 0.581818 0.289536
vt 0.569229 0.365074
vt 0.569229 0.062922
vt 0.380384 0.236056
vt 0.379676 0.239866
vt 0.430743 0.236056
vt 0.405563 0.267034
vt 0.405563 0.267034
vt 0.469551 0.546276
vt 0.469477 0.546291
vt 0.469085 0.544976
vt 0.469267 0.544890
vt 0.469345 0.544865
vt 0.469085 0.543618
vt 0.469085 0.544989
vt 0.469030 0.544989
vt 0.468873 0.543655
vt 0.467544 0.543662
vt 0.467380 0.544989
vt 0.467326 0.544990
vt 0.467326 0.543619
vt 0.469427 0.544867
vt 0.469626 0.544897
vt 0.469626 0.546269
vt 0.467834 0.543584
vt 0.468005 0.543641
vt 0.468056 0.543724
vt 0.468205 0.544056
vt 0.467581 0.545023
vt 0.467587 0.543645
vt 0.468829 0.545023
vt 0.468205 0.544068
vt 0.468353 0.543724
vt 0.468404 0.543641
vt 0.468575 0.543584
vt 0.468821 0.543645
vt 0.469471 0.544804
vt 0.469168 0.544684
vt 0.469085 0.544546
vt 0.469698 0.543584
vt 0.469931 0.543652
vt 0.469931 0.544803
vt 0.469791 0.544865
vt 0.468252 0.545042
vt 0.468327 0.545023
vt 0.468402 0.545042
vt 0.468448 0.545093
vt 0.468448 0.545297
vt 0.468205 0.545297
vt 0.468205 0.545093
s 1
usemtl Clown_Car
f 236/111/166 173/112/103 179/113/109 180/114/110
f 245/115/175 171/116/101 176/117/106 237/118/167
f 234/119/164 207/120/137 174/121/104
f 213/122/143 236/111/166 180/114/110
f 173/112/103 235/123/165 177/124/107 179/113/109
f 257/125/187 234/119/164 174/121/104 246/126/176
f 180/114/110 179/113/109 186/127/116 188/128/118
f 237/118/167 176/117/106 184/129/114 238/130/168
f 174/121/104 207/131/137 182/132/112
f 213/133/143 180/114/110 188/128/118
f 179/113/109 177/124/107 185/134/115 186/127/116
f 246/126/176 174/121/104 182/132/112 247/135/177
f 238/130/168 184/129/114 191/136/121 239/137/169
f 182/132/112 207/138/137 190/139/120
f 213/140/143 188/128/118 194/141/124
f 186/127/116 185/134/115 192/142/122 193/143/123
f 247/135/177 182/132/112 190/139/120 248/144/178
f 188/128/118 186/127/116 193/143/123 194/141/124
f 190/139/120 207/145/137 195/146/125
f 213/147/143 194/141/124 199/148/129
f 193/143/123 192/142/122 197/149/127 198/150/128
f 248/144/178 190/139/120 195/146/125 249/151/179
f 194/141/124 193/143/123 198/150/128 199/148/129
f 239/137/169 191/136/121 196/152/126 240/153/170
f 213/154/143 199/148/129 204/155/134
f 198/150/128 197/149/127 202/156/132 203/157/133
f 249/151/179 195/146/125 200/158/130 250/159/180
f 204/155/134 199/148/129 198/150/128 203/157/133 259/160/189 258/161/188 260/162/190
f 240/153/170 196/152/126 201/163/131 261/164/191
f 195/146/125 207/165/137 200/158/130
f 213/166/143 204/155/134 206/167/136
f 263/168/193 203/157/133 202/156/132 262/169/192
f 250/159/180 200/158/130 205/170/135 251/171/181
f 203/157/133 263/168/193 259/160/189
f 206/167/136 204/155/134 260/162/190 264/172/194
f 201/163/131 265/173/195 266/174/196 261/175/191
f 200/158/130 207/176/137 205/170/135
f 213/177/143 206/167/136 212/178/142
f 210/179/140 211/180/141 268/181/198 267/182/197
f 251/171/181 205/170/135 208/183/138 252/184/182
f 211/180/141 269/185/199 268/181/198
f 212/178/142 206/167/136 264/172/194 270/186/200
f 272/187/202 209/188/139 274/189/204 271/190/201
f 205/170/135 207/191/137 208/183/138
f 211/180/141 210/179/140 216/192/146 217/193/147
f 252/184/182 208/183/138 214/194/144 253/195/183
f 217/193/147 218/196/148 212/178/142 270/186/200 273/197/203 269/185/199 211/180/141
f 274/189/204 209/188/139 215/198/145 241/199/171
f 208/183/138 207/200/137 214/194/144
f 213/201/143 212/178/142 218/196/148
f 253/195/183 214/194/144 219/202/149 254/203/184
f 218/196/148 217/193/147 222/204/152 223/205/153
f 241/199/171 215/198/145 220/206/150 242/207/172
f 214/194/144 207/208/137 219/202/149
f 213/209/143 218/196/148 223/205/153
f 217/193/147 216/192/146 221/210/151 222/204/152
f 223/211/153 222/212/152 227/213/157 228/214/158
f 242/215/172 220/216/150 225/217/155 243/218/173
f 219/219/149 207/220/137 224/221/154
f 213/222/143 223/211/153 228/214/158
f 222/212/152 221/223/151 226/224/156 227/213/157
f 254/225/184 219/219/149 224/221/154 255/226/185
f 228/214/158 227/213/157 232/227/162 233/228/163
f 243/218/173 225/217/155 230/229/160 244/230/174
f 224/221/154 207/231/137 229/232/159
f 213/233/143 228/214/158 233/228/163
f 227/213/157 226/224/156 231/234/161 232/227/162
f 255/226/185 224/221/154 229/232/159 256/235/186
f 233/228/163 232/227/162 173/112/103 236/111/166
f 244/230/174 230/229/160 171/116/101 245/115/175
f 229/232/159 207/236/137 234/119/164
f 213/237/143 233/228/163 236/111/166
f 232/227/162 231/234/161 235/123/165 173/112/103
f 256/235/186 229/232/159 234/119/164 257/125/187
f 231/234/161 244/230/174 245/115/175 235/123/165
f 226/224/156 243/218/173 244/230/174 231/234/161
f 221/223/151 242/215/172 243/218/173 226/224/156
f 216/192/146 241/199/171 242/207/172 221/210/151
f 275/238/205 274/239/204 241/199/171 216/192/146 210/179/140
f 210/179/140 267/182/197 275/238/205
f 262/169/192 202/156/132 276/240/206
f 276/240/206 202/156/132 197/149/127 240/153/170 261/164/191
f 192/142/122 239/137/169 240/153/170 197/149/127
f 185/134/115 238/130/168 239/137/169 192/142/122
f 177/124/107 237/118/167 238/130/168 185/134/115
f 235/123/165 245/115/175 237/118/167 177/124/107
f 230/229/160 256/235/186 257/125/187 171/116/101
f 225/217/155 255/226/185 256/235/186 230/229/160
f 220/216/150 254/225/184 255/226/185 225/217/155
f 215/198/145 253/195/183 254/203/184 220/206/150
f 209/188/139 252/184/182 253/195/183 215/198/145
f 277/241/207 251/171/181 252/184/182 209/188/139 272/187/202
f 265/173/195 201/163/131 250/159/180 251/171/181 277/241/207 278/242/208
f 196/152/126 249/151/179 250/159/180 201/163/131
f 191/136/121 248/144/178 249/151/179 196/152/126
f 184/129/114 247/135/177 248/144/178 191/136/121
f 176/117/106 246/126/176 247/135/177 184/129/114
f 171/116/101 257/125/187 246/126/176 176/117/106
f 172/243/102 175/244/105 266/245/196 265/246/195 278/247/208
f 266/248/196 175/249/105 178/250/108 261/251/191
f 274/252/204 181/253/111 183/254/113 271/255/201
f 277/247/207 272/256/202 271/257/201 183/258/113 172/243/102 278/247/208
f 267/259/197 268/260/198 269/261/199 273/262/203 189/263/119 181/253/111 274/252/204 275/264/205
f 261/251/191 178/250/108 187/265/117 258/266/188 259/267/189 263/268/193 262/269/192 276/270/206
f 264/271/194 260/272/190 258/273/188 187/274/117 189/275/119 273/276/203 270/277/200
f 175/278/105 172/279/102 183/280/113 181/281/111 189/282/119 187/283/117 178/284/108
o Thorax_1
v 0.000000 0.955232 -0.293432
v -0.000000 0.490790 -0.298386
v 0.097274 1.221389 -0.148408
v 0.168483 0.958583 -0.249400
v 0.194548 0.608738 -0.267062
v 0.189024 0.494550 -0.248986
v 0.097274 0.252694 -0.074687
v 0.168483 1.226675 -0.078955
v 0.291822 0.967738 -0.129104
v 0.336967 0.619309 -0.128156
v 0.327399 0.504821 -0.114024
v 0.168483 0.257979 -0.005234
v 0.194548 1.233895 0.015920
v 0.336967 0.980244 0.035224
v 0.389096 0.633750 0.061593
v 0.378047 0.518851 0.070337
v 0.194548 0.265200 0.089641
v 0.168483 1.241116 0.110795
v 0.291822 0.992750 0.199551
v 0.336967 0.648190 0.251342
v 0.327399 0.532882 0.254699
v 0.168483 0.272420 0.184516
v 0.097274 1.246401 0.180248
v 0.168483 1.001905 0.319848
v 0.194548 0.658761 0.390248
v 0.189024 0.543153 0.389661
v 0.097274 0.277706 0.253969
v 0.000000 1.248336 0.205669
v -0.000000 1.005256 0.363879
v 0.000000 0.662631 0.441092
v -0.000000 0.546912 0.439060
v 0.000000 0.279640 0.279390
v 0.000000 1.300866 0.010823
v -0.097274 1.246401 0.180248
v -0.168483 1.001905 0.319848
v -0.194548 0.658761 0.390248
v -0.189024 0.543153 0.389661
v -0.097274 0.277706 0.253969
v 0.000000 0.193466 0.095100
v -0.168483 1.241116 0.110795
v -0.291822 0.992750 0.199551
v -0.336967 0.648190 0.251342
v -0.327399 0.532882 0.254699
v -0.168483 0.272420 0.184516
v -0.194548 1.233895 0.015920
v -0.336967 0.980244 0.035224
v -0.389096 0.633750 0.061593
v -0.378047 0.518851 0.070337
v -0.194548 0.265200 0.089641
v -0.168483 1.226675 -0.078955
v -0.291822 0.967738 -0.129104
v -0.336967 0.619309 -0.128156
v -0.327399 0.504821 -0.114024
v -0.168483 0.257979 -0.005234
v -0.097274 1.221389 -0.148408
v -0.168483 0.958583 -0.249400
v -0.194548 0.608738 -0.267062
v -0.189024 0.494550 -0.248986
v -0.097274 0.252694 -0.074687
v 0.000000 1.219455 -0.173829
v 0.000000 0.604868 -0.317905
v 0.000000 0.250759 -0.100108
v 0.170683 0.789792 -0.240293
v 0.295632 0.799066 -0.118426
v 0.341367 0.811735 0.048048
v 0.295632 0.824404 0.214521
v 0.170683 0.833679 0.336388
v -0.000000 0.837074 0.380994
v -0.170683 0.833679 0.336388
v -0.295632 0.824404 0.214521
v -0.341367 0.811735 0.048048
v -0.295632 0.799066 -0.118426
v -0.170683 0.789792 -0.240293
v -0.000000 0.786397 -0.284899
v 0.146558 1.088228 -0.222012
v 0.253845 1.096191 -0.117371
v 0.293115 1.107070 0.025572
v 0.253845 1.117948 0.168515
v 0.146558 1.125912 0.273156
v -0.000000 1.128826 0.311457
v -0.146558 1.125912 0.273156
v -0.253845 1.117948 0.168515
v -0.293115 1.107070 0.025572
v -0.253845 1.096191 -0.117371
v -0.146558 1.088228 -0.222012
v 0.000000 1.085313 -0.260314
vn -0.0000 0.0866 -0.9962
vn -0.0000 -0.3719 -0.9283
vn 0.3181 0.7176 -0.6196
vn 0.4852 0.0971 -0.8690
vn 0.4904 0.0078 -0.8715
vn 0.4688 -0.3640 -0.8048
vn 0.3296 -0.7843 -0.5256
vn 0.5536 0.7390 -0.3839
vn 0.8494 0.1260 -0.5124
vn 0.8588 0.0361 -0.5111
vn 0.8202 -0.3408 -0.4596
vn 0.5737 -0.7694 -0.2810
vn 0.6407 0.7656 -0.0583
vn 0.9862 0.1650 -0.0126
vn 0.9972 0.0750 -0.0057
vn 0.9519 -0.3056 0.0233
vn 0.6641 -0.7455 0.0567
vn 0.5536 0.7886 0.2677
vn 0.8494 0.2021 0.4874
vn 0.8588 0.1130 0.4997
vn 0.8202 -0.2673 0.5058
vn 0.5737 -0.7180 0.3942
vn 0.3181 0.8031 0.5038
vn 0.4852 0.2275 0.8443
vn 0.4904 0.1396 0.8602
vn 0.4688 -0.2381 0.8506
vn 0.3296 -0.6957 0.6382
vn -0.0000 0.8078 0.5894
vn -0.0000 0.2363 0.9717
vn -0.0000 0.1490 0.9888
vn -0.0000 -0.2272 0.9739
vn -0.0000 -0.6872 0.7265
vn -0.0000 0.9971 -0.0759
vn -0.3181 0.8031 0.5038
vn -0.4852 0.2275 0.8443
vn -0.4904 0.1396 0.8602
vn -0.4688 -0.2381 0.8506
vn -0.3296 -0.6957 0.6382
vn -0.0000 -0.9971 0.0759
vn -0.5536 0.7886 0.2677
vn -0.8494 0.2021 0.4874
vn -0.8588 0.1130 0.4997
vn -0.8202 -0.2673 0.5058
vn -0.5737 -0.7180 0.3942
vn -0.6407 0.7656 -0.0583
vn -0.9862 0.1650 -0.0126
vn -0.9972 0.0750 -0.0057
vn -0.9519 -0.3056 0.0233
vn -0.6641 -0.7455 0.0567
vn -0.5536 0.7390 -0.3839
vn -0.8494 0.1260 -0.5124
vn -0.8588 0.0361 -0.5111
vn -0.8202 -0.3408 -0.4596
vn -0.5737 -0.7694 -0.2810
vn -0.3181 0.7176 -0.6196
vn -0.4852 0.0971 -0.8690
vn -0.4904 0.0078 -0.8715
vn -0.4688 -0.3640 -0.8048
vn -0.3296 -0.7843 -0.5256
vn -0.0000 0.7093 -0.7049
vn -0.0000 -0.0023 -1.0000
vn -0.0000 -0.7892 -0.6141
vn 0.4867 0.0764 -0.8702
vn 0.8522 0.1052 -0.5125
vn 0.9895 0.1441 -0.0110
vn 0.8522 0.1815 0.4907
vn 0.4867 0.2072 0.8486
vn -0.0000 0.2162 0.9764
vn -0.4867 0.2072 0.8486
vn -0.8522 0.1815 0.4907
vn -0.9895 0.1441 -0.0110
vn -0.8522 0.1052 -0.5125
vn -0.4867 0.0764 -0.8702
vn -0.0000 0.0659 -0.9978
vn 0.4409 0.3824 -0.8120
vn 0.7704 0.4111 -0.4873
vn 0.8936 0.4476 -0.0341
vn 0.7704 0.4801 0.4195
vn 0.4409 0.5009 0.7448
vn -0.0000 0.5078 0.8615
vn -0.4409 0.5009 0.7448
vn -0.7704 0.4801 0.4195
vn -0.8936 0.4476 -0.0341
vn -0.7704 0.4111 -0.4873
vn -0.4409 0.3824 -0.8120
vn -0.0000 0.3716 -0.9284
vt 0.572523 0.105541
vt 0.572523 0.149690
vt 0.550449 0.149690
vt 0.550449 0.105541
vt 0.572523 0.216518
vt 0.572523 0.237988
vt 0.550449 0.237988
vt 0.550449 0.216518
vt 0.572523 0.282138
vt 0.561486 0.326287
vt 0.550449 0.282138
vt 0.561486 0.061392
vt 0.572523 0.193839
vt 0.550449 0.193839
vt 0.572523 0.260063
vt 0.550449 0.260063
vt 0.528374 0.149690
vt 0.528374 0.105541
vt 0.528374 0.237988
vt 0.528374 0.216518
vt 0.539412 0.326287
vt 0.528374 0.282138
vt 0.539412 0.061392
vt 0.528374 0.193839
vt 0.528374 0.260063
vt 0.506300 0.237988
vt 0.506300 0.216518
vt 0.517337 0.326287
vt 0.506300 0.282138
vt 0.517337 0.061392
vt 0.506300 0.105541
vt 0.506300 0.193839
vt 0.506300 0.149690
vt 0.506300 0.260063
vt 0.495262 0.326287
vt 0.484225 0.282138
vt 0.495262 0.061392
vt 0.484225 0.105541
vt 0.484225 0.193839
vt 0.484225 0.149690
vt 0.484225 0.260063
vt 0.484225 0.237988
vt 0.484225 0.216518
vt 0.473188 0.061392
vt 0.462150 0.105541
vt 0.462150 0.193839
vt 0.462150 0.149690
vt 0.462150 0.282138
vt 0.462150 0.260063
vt 0.462150 0.237988
vt 0.462150 0.216518
vt 0.473188 0.326287
vt 0.451113 0.061392
vt 0.440076 0.105541
vt 0.440076 0.193839
vt 0.440076 0.149690
vt 0.440076 0.282138
vt 0.440076 0.260063
vt 0.440076 0.237988
vt 0.440076 0.216518
vt 0.451113 0.326287
vt 0.429038 0.061392
vt 0.418001 0.105541
vt 0.418001 0.193839
vt 0.418001 0.149690
vt 0.418001 0.282138
vt 0.418001 0.260063
vt 0.418001 0.237988
vt 0.418001 0.216518
vt 0.429038 0.326287
vt 0.395927 0.193839
vt 0.395927 0.149690
vt 0.395927 0.282138
vt 0.395927 0.260063
vt 0.395927 0.105541
vt 0.395927 0.237988
vt 0.395927 0.216518
vt 0.406964 0.326287
vt 0.406964 0.061392
vt 0.373852 0.282138
vt 0.373852 0.260063
vt 0.373852 0.149690
vt 0.373852 0.105541
vt 0.373852 0.237988
vt 0.373852 0.216518
vt 0.384889 0.326287
vt 0.384889 0.061392
vt 0.373852 0.193839
vt 0.638747 0.105541
vt 0.638747 0.149690
vt 0.616673 0.149690
vt 0.616673 0.105541
vt 0.638747 0.216518
vt 0.638747 0.237988
vt 0.616673 0.237988
vt 0.616673 0.216518
vt 0.638747 0.282138
vt 0.627710 0.326287
vt 0.616673 0.282138
vt 0.627710 0.061392
vt 0.638747 0.193839
vt 0.616673 0.193839
vt 0.638747 0.260063
vt 0.616673 0.260063
vt 0.594598 0.149690
vt 0.594598 0.105541
vt 0.594598 0.237988
vt 0.594598 0.216518
vt 0.605635 0.326287
vt 0.594598 0.282138
vt 0.605635 0.061392
vt 0.594598 0.193839
vt 0.594598 0.260063
vt 0.583561 0.326287
vt 0.583561 0.061392
s 1
usemtl Clown_Car
f 340/285/270 280/286/210 284/287/214 285/288/215
f 352/289/282 279/290/209 282/291/212 341/292/271
f 338/293/268 311/294/241 281/295/211
f 317/296/247 340/285/270 285/288/215
f 280/286/210 339/297/269 283/298/213 284/287/214
f 364/299/294 338/293/268 281/295/211 353/300/283
f 285/288/215 284/287/214 289/301/219 290/302/220
f 341/292/271 282/291/212 287/303/217 342/304/272
f 281/295/211 311/305/241 286/306/216
f 317/307/247 285/288/215 290/302/220
f 284/287/214 283/298/213 288/308/218 289/301/219
f 353/300/283 281/295/211 286/306/216 354/309/284
f 342/304/272 287/303/217 292/310/222 343/311/273
f 286/306/216 311/312/241 291/313/221
f 317/314/247 290/302/220 295/315/225
f 289/301/219 288/308/218 293/316/223 294/317/224
f 354/309/284 286/306/216 291/313/221 355/318/285
f 290/302/220 289/301/219 294/317/224 295/315/225
f 291/313/221 311/319/241 296/320/226
f 317/321/247 295/315/225 300/322/230
f 294/317/224 293/316/223 298/323/228 299/324/229
f 355/318/285 291/313/221 296/320/226 356/325/286
f 295/315/225 294/317/224 299/324/229 300/322/230
f 343/311/273 292/310/222 297/326/227 344/327/274
f 317/328/247 300/322/230 305/329/235
f 299/324/229 298/323/228 303/330/233 304/331/234
f 356/325/286 296/320/226 301/332/231 357/333/287
f 300/322/230 299/324/229 304/331/234 305/329/235
f 344/327/274 297/326/227 302/334/232 345/335/275
f 296/320/226 311/336/241 301/332/231
f 317/337/247 305/329/235 310/338/240
f 304/331/234 303/330/233 308/339/238 309/340/239
f 357/333/287 301/332/231 306/341/236 358/342/288
f 305/329/235 304/331/234 309/340/239 310/338/240
f 345/335/275 302/334/232 307/343/237 346/344/276
f 301/332/231 311/345/241 306/341/236
f 317/346/247 310/338/240 316/347/246
f 309/340/239 308/339/238 314/348/244 315/349/245
f 358/342/288 306/341/236 312/350/242 359/351/289
f 310/338/240 309/340/239 315/349/245 316/347/246
f 346/344/276 307/343/237 313/352/243 347/353/277
f 306/341/236 311/354/241 312/350/242
f 315/349/245 314/348/244 320/355/250 321/356/251
f 359/351/289 312/350/242 318/357/248 360/358/290
f 316/347/246 315/349/245 321/356/251 322/359/252
f 347/353/277 313/352/243 319/360/249 348/361/278
f 312/350/242 311/362/241 318/357/248
f 317/363/247 316/347/246 322/359/252
f 360/358/290 318/357/248 323/364/253 361/365/291
f 322/359/252 321/356/251 326/366/256 327/367/257
f 348/361/278 319/360/249 324/368/254 349/369/279
f 318/357/248 311/370/241 323/364/253
f 317/371/247 322/359/252 327/367/257
f 321/356/251 320/355/250 325/372/255 326/366/256
f 327/373/257 326/374/256 331/375/261 332/376/262
f 349/377/279 324/378/254 329/379/259 350/380/280
f 323/381/253 311/382/241 328/383/258
f 317/384/247 327/373/257 332/376/262
f 326/374/256 325/385/255 330/386/260 331/375/261
f 361/387/291 323/381/253 328/383/258 362/388/292
f 332/376/262 331/375/261 336/389/266 337/390/267
f 350/380/280 329/379/259 334/391/264 351/392/281
f 328/383/258 311/393/241 333/394/263
f 317/395/247 332/376/262 337/390/267
f 331/375/261 330/386/260 335/396/265 336/389/266
f 362/388/292 328/383/258 333/394/263 363/397/293
f 337/390/267 336/389/266 280/286/210 340/285/270
f 351/392/281 334/391/264 279/290/209 352/289/282
f 333/394/263 311/398/241 338/293/268
f 317/399/247 337/390/267 340/285/270
f 336/389/266 335/396/265 339/297/269 280/286/210
f 363/397/293 333/394/263 338/293/268 364/299/294
f 335/396/265 351/392/281 352/289/282 339/297/269
f 330/386/260 350/380/280 351/392/281 335/396/265
f 325/385/255 349/377/279 350/380/280 330/386/260
f 320/355/250 348/361/278 349/369/279 325/372/255
f 314/348/244 347/353/277 348/361/278 320/355/250
f 308/339/238 346/344/276 347/353/277 314/348/244
f 303/330/233 345/335/275 346/344/276 308/339/238
f 298/323/228 344/327/274 345/335/275 303/330/233
f 293/316/223 343/311/273 344/327/274 298/323/228
f 288/308/218 342/304/272 343/311/273 293/316/223
f 283/298/213 341/292/271 342/304/272 288/308/218
f 339/297/269 352/289/282 341/292/271 283/298/213
f 334/391/264 363/397/293 364/299/294 279/290/209
f 329/379/259 362/388/292 363/397/293 334/391/264
f 324/378/254 361/387/291 362/388/292 329/379/259
f 319/360/249 360/358/290 361/365/291 324/368/254
f 313/352/243 359/351/289 360/358/290 319/360/249
f 307/343/237 358/342/288 359/351/289 313/352/243
f 302/334/232 357/333/287 358/342/288 307/343/237
f 297/326/227 356/325/286 357/333/287 302/334/232
f 292/310/222 355/318/285 356/325/286 297/326/227
f 287/303/217 354/309/284 355/318/285 292/310/222
f 282/291/212 353/300/283 354/309/284 287/303/217
f 279/290/209 364/299/294 353/300/283 282/291/212
o Thorax_2
v 0.000000 0.902165 -0.604776
v -0.000000 0.470456 -0.609381
v 0.090418 1.149565 -0.469973
v 0.156609 0.905280 -0.563848
v 0.180837 0.580091 -0.580266
v 0.175702 0.473951 -0.563463
v 0.090418 0.249140 -0.401448
v 0.156609 1.154478 -0.405415
v 0.271255 0.913790 -0.452030
v 0.313218 0.589917 -0.451149
v 0.304324 0.483498 -0.438013
v 0.156609 0.254054 -0.336890
v 0.180837 1.161189 -0.317227
v 0.313218 0.925414 -0.299284
v 0.361673 0.603340 -0.274773
v 0.351404 0.496540 -0.266645
v 0.180837 0.260765 -0.248702
v 0.156609 1.167901 -0.229039
v 0.271255 0.937039 -0.146538
v 0.313218 0.616763 -0.098397
v 0.304324 0.509581 -0.095277
v 0.156609 0.267476 -0.160514
v 0.090418 1.172814 -0.164481
v 0.156609 0.945549 -0.034720
v 0.180837 0.626589 0.030719
v 0.175702 0.519128 0.030173
v 0.090418 0.272389 -0.095956
v 0.000000 1.174612 -0.140851
v -0.000000 0.948663 0.006208
v 0.000000 0.630186 0.077979
v -0.000000 0.522623 0.076091
v 0.000000 0.274188 -0.072326
v 0.000000 1.223439 -0.321965
v -0.090418 1.172814 -0.164481
v -0.156609 0.945549 -0.034720
v -0.180837 0.626589 0.030719
v -0.175702 0.519128 0.030173
v -0.090418 0.272389 -0.095956
v 0.000000 0.194087 -0.243627
v -0.156609 1.167901 -0.229039
v -0.271255 0.937039 -0.146538
v -0.313218 0.616763 -0.098397
v -0.304324 0.509581 -0.095277
v -0.156609 0.267476 -0.160514
v -0.180837 1.161189 -0.317227
v -0.313218 0.925414 -0.299284
v -0.361673 0.603340 -0.274773
v -0.351404 0.496540 -0.266645
v -0.180837 0.260765 -0.248702
v -0.156609 1.154478 -0.405415
v -0.271255 0.913790 -0.452030
v -0.313218 0.589917 -0.451149
v -0.304324 0.483498 -0.438013
v -0.156609 0.254054 -0.336890
v -0.090418 1.149565 -0.469973
v -0.156609 0.905280 -0.563848
v -0.180837 0.580091 -0.580266
v -0.175702 0.473951 -0.563463
v -0.090418 0.249140 -0.401448
v 0.000000 1.147766 -0.493603
v 0.000000 0.576495 -0.627525
v 0.000000 0.247342 -0.425078
v 0.158654 0.748385 -0.555382
v 0.274797 0.757006 -0.442104
v 0.317308 0.768782 -0.287364
v 0.274797 0.780558 -0.132623
v 0.158654 0.789179 -0.019345
v -0.000000 0.792334 0.022118
v -0.158654 0.789179 -0.019345
v -0.274797 0.780558 -0.132623
v -0.317308 0.768782 -0.287364
v -0.274797 0.757006 -0.442104
v -0.158654 0.748385 -0.555382
v -0.000000 0.745229 -0.596845
v 0.136229 1.025788 -0.538391
v 0.235955 1.033190 -0.441124
v 0.272457 1.043302 -0.308256
v 0.235955 1.053414 -0.175387
v 0.136229 1.060816 -0.078121
v -0.000000 1.063525 -0.042519
v -0.136229 1.060816 -0.078121
v -0.235955 1.053414 -0.175387
v -0.272457 1.043302 -0.308256
v -0.235955 1.033190 -0.441124
v -0.136229 1.025788 -0.538391
v 0.000000 1.023078 -0.573993
vn -0.0000 0.0866 -0.9962
vn -0.0000 -0.3719 -0.9283
vn 0.3181 0.7176 -0.6196
vn 0.4852 0.0971 -0.8690
vn 0.4904 0.0078 -0.8715
vn 0.4688 -0.3640 -0.8048
vn 0.3296 -0.7843 -0.5256
vn 0.5536 0.7390 -0.3839
vn 0.8494 0.1260 -0.5124
vn 0.8588 0.0361 -0.5111
vn 0.8202 -0.3408 -0.4596
vn 0.5737 -0.7694 -0.2810
vn 0.6407 0.7656 -0.0583
vn 0.9862 0.1650 -0.0126
vn 0.9972 0.0750 -0.0057
vn 0.9519 -0.3056 0.0233
vn 0.6641 -0.7455 0.0567
vn 0.5536 0.7886 0.2677
vn 0.8494 0.2021 0.4874
vn 0.8588 0.1130 0.4997
vn 0.8202 -0.2673 0.5058
vn 0.5737 -0.7180 0.3942
vn 0.3181 0.8031 0.5038
vn 0.4852 0.2275 0.8443
vn 0.4904 0.1396 0.8602
vn 0.4688 -0.2381 0.8506
vn 0.3296 -0.6957 0.6382
vn -0.0000 0.8078 0.5894
vn -0.0000 0.2363 0.9717
vn -0.0000 0.1490 0.9888
vn -0.0000 -0.2272 0.9739
vn -0.0000 -0.6872 0.7265
vn -0.0000 0.9971 -0.0759
vn -0.3181 0.8031 0.5038
vn -0.4852 0.2275 0.8443
vn -0.4904 0.1396 0.8602
vn -0.4688 -0.2381 0.8506
vn -0.3296 -0.6957 0.6382
vn -0.0000 -0.9971 0.0759
vn -0.5536 0.7886 0.2677
vn -0.8494 0.2021 0.4874
vn -0.8588 0.1130 0.4997
vn -0.8202 -0.2673 0.5058
vn -0.5737 -0.7180 0.3942
vn -0.6407 0.7656 -0.0583
vn -0.9862 0.1650 -0.0126
vn -0.9972 0.0750 -0.0057
vn -0.9519 -0.3056 0.0233
vn -0.6641 -0.7455 0.0567
vn -0.5536 0.7390 -0.3839
vn -0.8494 0.1260 -0.5124
vn -0.8588 0.0361 -0.5111
vn -0.8202 -0.3408 -0.4596
vn -0.5737 -0.7694 -0.2810
vn -0.3181 0.7176 -0.6196
vn -0.4852 0.0971 -0.8690
vn -0.4904 0.0078 -0.8715
vn -0.4688 -0.3640 -0.8048
vn -0.3296 -0.7843 -0.5256
vn -0.0000 0.7093 -0.7049
vn -0.0000 -0.0023 -1.0000
vn -0.0000 -0.7892 -0.6141
vn 0.4867 0.0764 -0.8702
vn 0.8522 0.1052 -0.5125
vn 0.9895 0.1441 -0.0110
vn 0.8522 0.1815 0.4907
vn 0.4867 0.2072 0.8486
vn -0.0000 0.2162 0.9764
vn -0.4867 0.2072 0.8486
vn -0.8522 0.1815 0.4907
vn -0.9895 0.1441 -0.0110
vn -0.8522 0.1052 -0.5125
vn -0.4867 0.0764 -0.8702
vn -0.0000 0.0659 -0.9978
vn 0.4409 0.3824 -0.8120
vn 0.7704 0.4111 -0.4873
vn 0.8936 0.4476 -0.0341
vn 0.7704 0.4801 0.4195
vn 0.4409 0.5009 0.7448
vn -0.0000 0.5078 0.8615
vn -0.4409 0.5009 0.7448
vn -0.7704 0.4801 0.4195
vn -0.8936 0.4476 -0.0341
vn -0.7704 0.4111 -0.4873
vn -0.4409 0.3824 -0.8120
vn -0.0000 0.3716 -0.9284
vt 0.552381 0.136177
vt 0.552381 0.171937
vt 0.534501 0.171937
vt 0.534501 0.136177
vt 0.552381 0.226068
vt 0.552381 0.243459
vt 0.534501 0.243459
vt 0.534501 0.226068
vt 0.552381 0.279220
vt 0.543441 0.314981
vt 0.534501 0.279220
vt 0.543441 0.100416
vt 0.552381 0.207698
vt 0.534501 0.207698
vt 0.552381 0.261340
vt 0.534501 0.261340
vt 0.516621 0.171937
vt 0.516621 0.136177
vt 0.516621 0.243459
vt 0.516621 0.226068
vt 0.525561 0.314981
vt 0.516621 0.279220
vt 0.525561 0.100416
vt 0.516621 0.207698
vt 0.516621 0.261340
vt 0.498740 0.243459
vt 0.498740 0.226068
vt 0.507680 0.314981
vt 0.498740 0.279220
vt 0.507680 0.100416
vt 0.498740 0.136177
vt 0.498740 0.207698
vt 0.498740 0.171937
vt 0.498740 0.261340
vt 0.489800 0.314981
vt 0.480860 0.279220
vt 0.489800 0.100416
vt 0.480860 0.136177
vt 0.480860 0.207698
vt 0.480860 0.171937
vt 0.480860 0.261340
vt 0.480860 0.243459
vt 0.480860 0.226068
vt 0.471919 0.100416
vt 0.462979 0.136177
vt 0.462979 0.207698
vt 0.462979 0.171937
vt 0.462979 0.279220
vt 0.462979 0.261340
vt 0.462979 0.243459
vt 0.462979 0.226068
vt 0.471919 0.314981
vt 0.454039 0.100416
vt 0.445099 0.136177
vt 0.445099 0.207698
vt 0.445099 0.171937
vt 0.445099 0.279220
vt 0.445099 0.261340
vt 0.445099 0.243459
vt 0.445099 0.226068
vt 0.454039 0.314981
vt 0.436159 0.100416
vt 0.427218 0.136177
vt 0.427218 0.207698
vt 0.427218 0.171937
vt 0.427218 0.279220
vt 0.427218 0.261340
vt 0.427218 0.243459
vt 0.427218 0.226068
vt 0.436159 0.314981
vt 0.409338 0.207698
vt 0.409338 0.171937
vt 0.409338 0.279220
vt 0.409338 0.261340
vt 0.409338 0.136177
vt 0.409338 0.243459
vt 0.409338 0.226068
vt 0.418278 0.314981
vt 0.418278 0.100416
vt 0.391457 0.279220
vt 0.391457 0.261340
vt 0.391457 0.171937
vt 0.391457 0.136177
vt 0.391457 0.243459
vt 0.391457 0.226068
vt 0.400398 0.314981
vt 0.400398 0.100416
vt 0.391457 0.207698
vt 0.606023 0.136177
vt 0.606023 0.171937
vt 0.588142 0.171937
vt 0.588142 0.136177
vt 0.606023 0.226068
vt 0.606023 0.243459
vt 0.588142 0.243459
vt 0.588142 0.226068
vt 0.606023 0.279220
vt 0.597082 0.314981
vt 0.588142 0.279220
vt 0.597082 0.100416
vt 0.606023 0.207698
vt 0.588142 0.207698
vt 0.606023 0.261340
vt 0.588142 0.261340
vt 0.570262 0.171937
vt 0.570262 0.136177
vt 0.570262 0.243459
vt 0.570262 0.226068
vt 0.579202 0.314981
vt 0.570262 0.279220
vt 0.579202 0.100416
vt 0.570262 0.207698
vt 0.570262 0.261340
vt 0.561322 0.314981
vt 0.561322 0.100416
s 1
usemtl Clown_Car
f 426/400/356 366/401/296 370/402/300 371/403/301
f 438/404/368 365/405/295 368/406/298 427/407/357
f 424/408/354 397/409/327 367/410/297
f 403/411/333 426/400/356 371/403/301
f 366/401/296 425/412/355 369/413/299 370/402/300
f 450/414/380 424/408/354 367/410/297 439/415/369
f 371/403/301 370/402/300 375/416/305 376/417/306
f 427/407/357 368/406/298 373/418/303 428/419/358
f 367/410/297 397/420/327 372/421/302
f 403/422/333 371/403/301 376/417/306
f 370/402/300 369/413/299 374/423/304 375/416/305
f 439/415/369 367/410/297 372/421/302 440/424/370
f 428/419/358 373/418/303 378/425/308 429/426/359
f 372/421/302 397/427/327 377/428/307
f 403/429/333 376/417/306 381/430/311
f 375/416/305 374/423/304 379/431/309 380/432/310
f 440/424/370 372/421/302 377/428/307 441/433/371
f 376/417/306 375/416/305 380/432/310 381/430/311
f 377/428/307 397/434/327 382/435/312
f 403/436/333 381/430/311 386/437/316
f 380/432/310 379/431/309 384/438/314 385/439/315
f 441/433/371 377/428/307 382/435/312 442/440/372
f 381/430/311 380/432/310 385/439/315 386/437/316
f 429/426/359 378/425/308 383/441/313 430/442/360
f 403/443/333 386/437/316 391/444/321
f 385/439/315 384/438/314 389/445/319 390/446/320
f 442/440/372 382/435/312 387/447/317 443/448/373
f 386/437/316 385/439/315 390/446/320 391/444/321
f 430/442/360 383/441/313 388/449/318 431/450/361
f 382/435/312 397/451/327 387/447/317
f 403/452/333 391/444/321 396/453/326
f 390/446/320 389/445/319 394/454/324 395/455/325
f 443/448/373 387/447/317 392/456/322 444/457/374
f 391/444/321 390/446/320 395/455/325 396/453/326
f 431/450/361 388/449/318 393/458/323 432/459/362
f 387/447/317 397/460/327 392/456/322
f 403/461/333 396/453/326 402/462/332
f 395/455/325 394/454/324 400/463/330 401/464/331
f 444/457/374 392/456/322 398/465/328 445/466/375
f 396/453/326 395/455/325 401/464/331 402/462/332
f 432/459/362 393/458/323 399/467/329 433/468/363
f 392/456/322 397/469/327 398/465/328
f 401/464/331 400/463/330 406/470/336 407/471/337
f 445/466/375 398/465/328 404/472/334 446/473/376
f 402/462/332 401/464/331 407/471/337 408/474/338
f 433/468/363 399/467/329 405/475/335 434/476/364
f 398/465/328 397/477/327 404/472/334
f 403/478/333 402/462/332 408/474/338
f 446/473/376 404/472/334 409/479/339 447/480/377
f 408/474/338 407/471/337 412/481/342 413/482/343
f 434/476/364 405/475/335 410/483/340 435/484/365
f 404/472/334 397/485/327 409/479/339
f 403/486/333 408/474/338 413/482/343
f 407/471/337 406/470/336 411/487/341 412/481/342
f 413/488/343 412/489/342 417/490/347 418/491/348
f 435/492/365 410/493/340 415/494/345 436/495/366
f 409/496/339 397/497/327 414/498/344
f 403/499/333 413/488/343 418/491/348
f 412/489/342 411/500/341 416/501/346 417/490/347
f 447/502/377 409/496/339 414/498/344 448/503/378
f 418/491/348 417/490/347 422/504/352 423/505/353
f 436/495/366 415/494/345 420/506/350 437/507/367
f 414/498/344 397/508/327 419/509/349
f 403/510/333 418/491/348 423/505/353
f 417/490/347 416/501/346 421/511/351 422/504/352
f 448/503/378 414/498/344 419/509/349 449/512/379
f 423/505/353 422/504/352 366/401/296 426/400/356
f 437/507/367 420/506/350 365/405/295 438/404/368
f 419/509/349 397/513/327 424/408/354
f 403/514/333 423/505/353 426/400/356
f 422/504/352 421/511/351 425/412/355 366/401/296
f 449/512/379 419/509/349 424/408/354 450/414/380
f 421/511/351 437/507/367 438/404/368 425/412/355
f 416/501/346 436/495/366 437/507/367 421/511/351
f 411/500/341 435/492/365 436/495/366 416/501/346
f 406/470/336 434/476/364 435/484/365 411/487/341
f 400/463/330 433/468/363 434/476/364 406/470/336
f 394/454/324 432/459/362 433/468/363 400/463/330
f 389/445/319 431/450/361 432/459/362 394/454/324
f 384/438/314 430/442/360 431/450/361 389/445/319
f 379/431/309 429/426/359 430/442/360 384/438/314
f 374/423/304 428/419/358 429/426/359 379/431/309
f 369/413/299 427/407/357 428/419/358 374/423/304
f 425/412/355 438/404/368 427/407/357 369/413/299
f 420/506/350 449/512/379 450/414/380 365/405/295
f 415/494/345 448/503/378 449/512/379 420/506/350
f 410/493/340 447/502/377 448/503/378 415/494/345
f 405/475/335 446/473/376 447/480/377 410/483/340
f 399/467/329 445/466/375 446/473/376 405/475/335
f 393/458/323 444/457/374 445/466/375 399/467/329
f 388/449/318 443/448/373 444/457/374 393/458/323
f 383/441/313 442/440/372 443/448/373 388/449/318
f 378/425/308 441/433/371 442/440/372 383/441/313
f 373/418/303 440/424/370 441/433/371 378/425/308
f 368/406/298 439/415/369 440/424/370 373/418/303
f 365/405/295 450/414/380 439/415/369 368/406/298
o Thorax_3
v 0.000000 0.824936 -0.827020
v -0.000000 0.415303 -0.831390
v 0.089506 1.059684 -0.699111
v 0.155029 0.827891 -0.788185
v 0.179012 0.519332 -0.803763
v 0.173929 0.418619 -0.787820
v 0.089506 0.205305 -0.634090
v 0.155029 1.064345 -0.637854
v 0.268519 0.835966 -0.682085
v 0.310058 0.528655 -0.681249
v 0.301255 0.427678 -0.668785
v 0.155029 0.209967 -0.572833
v 0.179012 1.070714 -0.554176
v 0.310058 0.846996 -0.537150
v 0.358025 0.541392 -0.513892
v 0.347859 0.440053 -0.506180
v 0.179012 0.216335 -0.489155
v 0.155029 1.077082 -0.470497
v 0.268519 0.858026 -0.392215
v 0.310058 0.554128 -0.346536
v 0.301255 0.452427 -0.343575
v 0.155029 0.222703 -0.405476
v 0.089506 1.081744 -0.409240
v 0.155029 0.866101 -0.286115
v 0.179012 0.563452 -0.224022
v 0.173929 0.461486 -0.224541
v 0.089506 0.227365 -0.344219
v 0.000000 1.083450 -0.386819
v -0.000000 0.869056 -0.247280
v 0.000000 0.566865 -0.179179
v -0.000000 0.464802 -0.180971
v 0.000000 0.229071 -0.321798
v 0.000000 1.129781 -0.558671
v -0.089506 1.081744 -0.409240
v -0.155029 0.866101 -0.286115
v -0.179012 0.563452 -0.224022
v -0.173929 0.461486 -0.224541
v -0.089506 0.227365 -0.344219
v 0.000000 0.153066 -0.484340
v -0.155029 1.077082 -0.470497
v -0.268519 0.858026 -0.392215
v -0.310058 0.554128 -0.346536
v -0.301255 0.452427 -0.343576
v -0.155029 0.222703 -0.405476
v -0.179012 1.070714 -0.554176
v -0.310058 0.846996 -0.537150
v -0.358025 0.541392 -0.513892
v -0.347859 0.440053 -0.506180
v -0.179012 0.216335 -0.489155
v -0.155029 1.064345 -0.637854
v -0.268518 0.835966 -0.682085
v -0.310058 0.528655 -0.681249
v -0.301254 0.427678 -0.668785
v -0.155029 0.209967 -0.572833
v -0.089506 1.059684 -0.699111
v -0.155029 0.827891 -0.788185
v -0.179012 0.519332 -0.803763
v -0.173929 0.418619 -0.787820
v -0.089506 0.205305 -0.634090
v 0.000000 1.057977 -0.721532
v 0.000000 0.515919 -0.848606
v 0.000000 0.203598 -0.656511
v 0.157054 0.679019 -0.780152
v 0.272025 0.687199 -0.672667
v 0.314107 0.698373 -0.525839
v 0.272025 0.709547 -0.379012
v 0.157054 0.717727 -0.271526
v -0.000000 0.720721 -0.232184
v -0.157054 0.717727 -0.271526
v -0.272025 0.709547 -0.379012
v -0.314107 0.698373 -0.525839
v -0.272025 0.687199 -0.672667
v -0.157054 0.679019 -0.780152
v -0.000000 0.676025 -0.819495
v 0.134854 0.942236 -0.764029
v 0.233575 0.949260 -0.671737
v 0.269709 0.958855 -0.545663
v 0.233575 0.968449 -0.419589
v 0.134854 0.975473 -0.327296
v -0.000000 0.978044 -0.293515
v -0.134854 0.975473 -0.327296
v -0.233575 0.968449 -0.419589
v -0.269709 0.958855 -0.545663
v -0.233575 0.949260 -0.671737
v -0.134854 0.942236 -0.764029
v 0.000000 0.939665 -0.797811
vn -0.0000 0.0866 -0.9962
vn -0.0000 -0.3719 -0.9283
vn 0.3062 0.7205 -0.6221
vn 0.4696 0.0981 -0.8774
vn 0.4747 0.0079 -0.8801
vn 0.4534 -0.3673 -0.8121
vn 0.3173 -0.7878 -0.5279
vn 0.5373 0.7484 -0.3888
vn 0.8392 0.1299 -0.5281
vn 0.8490 0.0372 -0.5271
vn 0.8085 -0.3505 -0.4726
vn 0.5574 -0.7798 -0.2849
vn 0.6246 0.7787 -0.0593
vn 0.9850 0.1719 -0.0131
vn 0.9969 0.0782 -0.0060
vn 0.9479 -0.3175 0.0242
vn 0.6483 -0.7592 0.0578
vn 0.5373 0.7986 0.2711
vn 0.8392 0.2083 0.5024
vn 0.8490 0.1166 0.5154
vn 0.8085 -0.2750 0.5202
vn 0.5574 -0.7278 0.3996
vn 0.3062 0.8064 0.5059
vn 0.4696 0.2297 0.8525
vn 0.4747 0.1410 0.8688
vn 0.4534 -0.2402 0.8583
vn 0.3173 -0.6988 0.6411
vn -0.0000 0.8078 0.5894
vn -0.0000 0.2363 0.9717
vn -0.0000 0.1490 0.9888
vn -0.0000 -0.2272 0.9739
vn -0.0000 -0.6872 0.7265
vn -0.0000 0.9971 -0.0759
vn -0.3062 0.8064 0.5059
vn -0.4696 0.2297 0.8525
vn -0.4747 0.1410 0.8688
vn -0.4534 -0.2402 0.8583
vn -0.3173 -0.6988 0.6411
vn -0.0000 -0.9971 0.0759
vn -0.5373 0.7986 0.2711
vn -0.8392 0.2083 0.5024
vn -0.8490 0.1166 0.5154
vn -0.8085 -0.2750 0.5202
vn -0.5574 -0.7278 0.3996
vn -0.6246 0.7787 -0.0593
vn -0.9850 0.1719 -0.0131
vn -0.9969 0.0782 -0.0060
vn -0.9479 -0.3175 0.0242
vn -0.6483 -0.7592 0.0578
vn -0.5373 0.7484 -0.3888
vn -0.8392 0.1299 -0.5281
vn -0.8490 0.0372 -0.5271
vn -0.8085 -0.3505 -0.4726
vn -0.5574 -0.7798 -0.2849
vn -0.3062 0.7205 -0.6221
vn -0.4696 0.0981 -0.8774
vn -0.4747 0.0079 -0.8801
vn -0.4534 -0.3673 -0.8121
vn -0.3173 -0.7878 -0.5279
vn -0.0000 0.7093 -0.7049
vn -0.0000 -0.0023 -1.0000
vn -0.0000 -0.7892 -0.6141
vn 0.4711 0.0771 -0.8787
vn 0.8421 0.1084 -0.5283
vn 0.9886 0.1502 -0.0114
vn 0.8421 0.1871 0.5058
vn 0.4711 0.2092 0.8569
vn -0.0000 0.2162 0.9764
vn -0.4711 0.2092 0.8569
vn -0.8421 0.1871 0.5058
vn -0.9886 0.1502 -0.0114
vn -0.8421 0.1084 -0.5283
vn -0.4711 0.0771 -0.8787
vn -0.0000 0.0659 -0.9978
vn 0.4260 0.3855 -0.8185
vn 0.7569 0.4214 -0.4995
vn 0.8857 0.4628 -0.0352
vn 0.7569 0.4921 0.4300
vn 0.4260 0.5049 0.7508
vn -0.0000 0.5078 0.8615
vn -0.4260 0.5049 0.7508
vn -0.7569 0.4921 0.4300
vn -0.8857 0.4628 -0.0352
vn -0.7569 0.4214 -0.4995
vn -0.4260 0.3855 -0.8185
vn -0.0000 0.3716 -0.9284
vt 0.565491 0.102739
vt 0.565491 0.143879
vt 0.544920 0.143879
vt 0.544920 0.102739
vt 0.565491 0.206153
vt 0.565491 0.226160
vt 0.544920 0.226160
vt 0.544920 0.206153
vt 0.565491 0.267301
vt 0.555205 0.308441
vt 0.544920 0.267301
vt 0.555205 0.061598
vt 0.565491 0.185020
vt 0.544920 0.185020
vt 0.565491 0.246731
vt 0.544920 0.246731
vt 0.524350 0.143879
vt 0.524350 0.102739
vt 0.524350 0.226160
vt 0.524350 0.206153
vt 0.534635 0.308441
vt 0.524350 0.267301
vt 0.534635 0.061598
vt 0.524350 0.185020
vt 0.524350 0.246731
vt 0.503780 0.226160
vt 0.503780 0.206153
vt 0.514065 0.308441
vt 0.503780 0.267301
vt 0.514065 0.061598
vt 0.503780 0.102739
vt 0.503780 0.185020
vt 0.503780 0.143879
vt 0.503780 0.246731
vt 0.493495 0.308441
vt 0.483209 0.267301
vt 0.493495 0.061598
vt 0.483209 0.102739
vt 0.483209 0.185020
vt 0.483209 0.143879
vt 0.483209 0.246731
vt 0.483209 0.226160
vt 0.483209 0.206153
vt 0.472924 0.061598
vt 0.462639 0.102739
vt 0.462639 0.185020
vt 0.462639 0.143879
vt 0.462639 0.267301
vt 0.462639 0.246731
vt 0.462639 0.226160
vt 0.462639 0.206153
vt 0.472924 0.308441
vt 0.452354 0.061598
vt 0.442069 0.102739
vt 0.442069 0.185020
vt 0.442069 0.143879
vt 0.442069 0.267301
vt 0.442069 0.246731
vt 0.442069 0.226160
vt 0.442069 0.206153
vt 0.452354 0.308441
vt 0.431784 0.061598
vt 0.421499 0.102739
vt 0.421499 0.185020
vt 0.421499 0.143879
vt 0.421499 0.267301
vt 0.421499 0.246731
vt 0.421499 0.226160
vt 0.421499 0.206153
vt 0.431784 0.308441
vt 0.400928 0.185020
vt 0.400928 0.143879
vt 0.400928 0.267301
vt 0.400928 0.246731
vt 0.400928 0.102739
vt 0.400928 0.226160
vt 0.400928 0.206153
vt 0.411213 0.308441
vt 0.411213 0.061598
vt 0.380358 0.267301
vt 0.380358 0.246731
vt 0.380358 0.143879
vt 0.380358 0.102739
vt 0.380358 0.226160
vt 0.380358 0.206153
vt 0.390643 0.308441
vt 0.390643 0.061598
vt 0.380358 0.185020
vt 0.627201 0.102739
vt 0.627201 0.143879
vt 0.606631 0.143879
vt 0.606631 0.102739
vt 0.627201 0.206153
vt 0.627201 0.226160
vt 0.606631 0.226160
vt 0.606631 0.206153
vt 0.627201 0.267301
vt 0.616916 0.308441
vt 0.606631 0.267301
vt 0.616916 0.061598
vt 0.627201 0.185020
vt 0.606631 0.185020
vt 0.627201 0.246731
vt 0.606631 0.246731
vt 0.586061 0.143879
vt 0.586061 0.102739
vt 0.586061 0.226160
vt 0.586061 0.206153
vt 0.596346 0.308441
vt 0.586061 0.267301
vt 0.596346 0.061598
vt 0.586061 0.185020
vt 0.586061 0.246731
vt 0.575776 0.308441
vt 0.575776 0.061598
s 1
usemtl Clown_Car
f 512/515/442 452/516/382 456/517/386 457/518/387
f 524/519/454 451/520/381 454/521/384 513/522/443
f 510/523/440 483/524/413 453/525/383
f 489/526/419 512/515/442 457/518/387
f 452/516/382 511/527/441 455/528/385 456/517/386
f 536/529/466 510/523/440 453/525/383 525/530/455
f 457/518/387 456/517/386 461/531/391 462/532/392
f 513/522/443 454/521/384 459/533/389 514/534/444
f 453/525/383 483/535/413 458/536/388
f 489/537/419 457/518/387 462/532/392
f 456/517/386 455/528/385 460/538/390 461/531/391
f 525/530/455 453/525/383 458/536/388 526/539/456
f 514/534/444 459/533/389 464/540/394 515/541/445
f 458/536/388 483/542/413 463/543/393
f 489/544/419 462/532/392 467/545/397
f 461/531/391 460/538/390 465/546/395 466/547/396
f 526/539/456 458/536/388 463/543/393 527/548/457
f 462/532/392 461/531/391 466/547/396 467/545/397
f 463/543/393 483/549/413 468/550/398
f 489/551/419 467/545/397 472/552/402
f 466/547/396 465/546/395 470/553/400 471/554/401
f 527/548/457 463/543/393 468/550/398 528/555/458
f 467/545/397 466/547/396 471/554/401 472/552/402
f 515/541/445 464/540/394 469/556/399 516/557/446
f 489/558/419 472/552/402 477/559/407
f 471/554/401 470/553/400 475/560/405 476/561/406
f 528/555/458 468/550/398 473/562/403 529/563/459
f 472/552/402 471/554/401 476/561/406 477/559/407
f 516/557/446 469/556/399 474/564/404 517/565/447
f 468/550/398 483/566/413 473/562/403
f 489/567/419 477/559/407 482/568/412
f 476/561/406 475/560/405 480/569/410 481/570/411
f 529/563/459 473/562/403 478/571/408 530/572/460
f 477/559/407 476/561/406 481/570/411 482/568/412
f 517/565/447 474/564/404 479/573/409 518/574/448
f 473/562/403 483/575/413 478/571/408
f 489/576/419 482/568/412 488/577/418
f 481/570/411 480/569/410 486/578/416 487/579/417
f 530/572/460 478/571/408 484/580/414 531/581/461
f 482/568/412 481/570/411 487/579/417 488/577/418
f 518/574/448 479/573/409 485/582/415 519/583/449
f 478/571/408 483/584/413 484/580/414
f 487/579/417 486/578/416 492/585/422 493/586/423
f 531/581/461 484/580/414 490/587/420 532/588/462
f 488/577/418 487/579/417 493/586/423 494/589/424
f 519/583/449 485/582/415 491/590/421 520/591/450
f 484/580/414 483/592/413 490/587/420
f 489/593/419 488/577/418 494/589/424
f 532/588/462 490/587/420 495/594/425 533/595/463
f 494/589/424 493/586/423 498/596/428 499/597/429
f 520/591/450 491/590/421 496/598/426 521/599/451
f 490/587/420 483/600/413 495/594/425
f 489/601/419 494/589/424 499/597/429
f 493/586/423 492/585/422 497/602/427 498/596/428
f 499/603/429 498/604/428 503/605/433 504/606/434
f 521/607/451 496/608/426 501/609/431 522/610/452
f 495/611/425 483/612/413 500/613/430
f 489/614/419 499/603/429 504/606/434
f 498/604/428 497/615/427 502/616/432 503/605/433
f 533/617/463 495/611/425 500/613/430 534/618/464
f 504/606/434 503/605/433 508/619/438 509/620/439
f 522/610/452 501/609/431 506/621/436 523/622/453
f 500/613/430 483/623/413 505/624/435
f 489/625/419 504/606/434 509/620/439
f 503/605/433 502/616/432 507/626/437 508/619/438
f 534/618/464 500/613/430 505/624/435 535/627/465
f 509/620/439 508/619/438 452/516/382 512/515/442
f 523/622/453 506/621/436 451/520/381 524/519/454
f 505/624/435 483/628/413 510/523/440
f 489/629/419 509/620/439 512/515/442
f 508/619/438 507/626/437 511/527/441 452/516/382
f 535/627/465 505/624/435 510/523/440 536/529/466
f 507/626/437 523/622/453 524/519/454 511/527/441
f 502/616/432 522/610/452 523/622/453 507/626/437
f 497/615/427 521/607/451 522/610/452 502/616/432
f 492/585/422 520/591/450 521/599/451 497/602/427
f 486/578/416 519/583/449 520/591/450 492/585/422
f 480/569/410 518/574/448 519/583/449 486/578/416
f 475/560/405 517/565/447 518/574/448 480/569/410
f 470/553/400 516/557/446 517/565/447 475/560/405
f 465/546/395 515/541/445 516/557/446 470/553/400
f 460/538/390 514/534/444 515/541/445 465/546/395
f 455/528/385 513/522/443 514/534/444 460/538/390
f 511/527/441 524/519/454 513/522/443 455/528/385
f 506/621/436 535/627/465 536/529/466 451/520/381
f 501/609/431 534/618/464 535/627/465 506/621/436
f 496/608/426 533/617/463 534/618/464 501/609/431
f 491/590/421 532/588/462 533/595/463 496/598/426
f 485/582/415 531/581/461 532/588/462 491/590/421
f 479/573/409 530/572/460 531/581/461 485/582/415
f 474/564/404 529/563/459 530/572/460 479/573/409
f 469/556/399 528/555/458 529/563/459 474/564/404
f 464/540/394 527/548/457 528/555/458 469/556/399
f 459/533/389 526/539/456 527/548/457 464/540/394
f 454/521/384 525/530/455 526/539/456 459/533/389
f 451/520/381 536/529/466 525/530/455 454/521/384
o Thorax_4
v 0.000000 0.778824 -1.050420
v -0.000000 0.466782 -1.010245
v 0.093893 0.957190 -0.953232
v 0.162627 0.781069 -1.020912
v 0.187785 0.545825 -0.989253
v 0.182453 0.469302 -0.977140
v 0.162627 0.960732 -0.906688
v 0.281678 0.787205 -0.940296
v 0.325254 0.553704 -0.939660
v 0.316019 0.476979 -0.930190
v 0.187785 0.965571 -0.843107
v 0.325254 0.795585 -0.830171
v 0.375571 0.563381 -0.812500
v 0.364907 0.486382 -0.806640
v 0.162627 0.970409 -0.779527
v 0.281678 0.803966 -0.720046
v 0.325254 0.573059 -0.685339
v 0.316019 0.495785 -0.683089
v 0.093893 0.973951 -0.732983
v 0.162627 0.810102 -0.639430
v 0.187785 0.580143 -0.592250
v 0.182453 0.502668 -0.592644
v 0.000000 0.975248 -0.715947
v -0.000000 0.812347 -0.609922
v 0.000000 0.582736 -0.558178
v -0.000000 0.505187 -0.559539
v 0.000000 1.010451 -0.846523
v -0.093893 0.973951 -0.732983
v -0.162627 0.810102 -0.639430
v -0.187785 0.580143 -0.592250
v -0.182453 0.502668 -0.592644
v -0.162627 0.970409 -0.779527
v -0.281678 0.803966 -0.720046
v -0.325254 0.573059 -0.685339
v -0.316019 0.495785 -0.683089
v -0.187785 0.965571 -0.843107
v -0.325254 0.795585 -0.830171
v -0.375571 0.563381 -0.812500
v -0.364907 0.486382 -0.806640
v -0.162627 0.960732 -0.906688
v -0.281678 0.787205 -0.940296
v -0.325254 0.553704 -0.939660
v -0.316019 0.476979 -0.930190
v -0.093893 0.957190 -0.953232
v -0.162627 0.781069 -1.020912
v -0.187785 0.545825 -0.989253
v -0.182453 0.469302 -0.977140
v 0.000000 0.955893 -0.970268
v 0.000000 0.543232 -1.023326
v 0.164750 0.667953 -1.014809
v 0.285356 0.674169 -0.933139
v 0.329501 0.682659 -0.821577
v 0.285356 0.691149 -0.710014
v 0.164750 0.697365 -0.628345
v -0.000000 0.699640 -0.598452
v -0.164750 0.697365 -0.628345
v -0.285356 0.691149 -0.710014
v -0.329501 0.682659 -0.821577
v -0.285356 0.674169 -0.933139
v -0.164750 0.667953 -1.014809
v -0.000000 0.665570 -1.038753
v 0.141463 0.867951 -1.002558
v 0.245022 0.873288 -0.932433
v 0.282927 0.880578 -0.836639
v 0.245022 0.887868 -0.740846
v 0.141463 0.893205 -0.670720
v -0.000000 0.895158 -0.645052
v -0.141463 0.893205 -0.670720
v -0.245022 0.887868 -0.740846
v -0.282927 0.880578 -0.836639
v -0.245022 0.873288 -0.932433
v -0.141463 0.867951 -1.002558
v 0.000000 0.865998 -1.028226
vn -0.0000 0.0730 -0.9973
vn -0.0000 -0.1687 -0.9857
vn 0.2269 0.7372 -0.6365
vn 0.3549 0.0959 -0.9300
vn 0.2943 -0.1037 -0.9501
vn 0.2561 -0.1650 -0.9525
vn 0.4190 0.8057 -0.4186
vn 0.7452 0.1593 -0.6475
vn 0.6808 -0.0041 -0.7325
vn 0.6386 -0.1742 -0.7496
vn 0.5013 0.8628 -0.0657
vn 0.9720 0.2342 -0.0178
vn 0.9942 0.1076 -0.0082
vn 0.9906 -0.1364 0.0104
vn 0.4190 0.8598 0.2918
vn 0.7452 0.2554 0.6160
vn 0.7584 0.1438 0.6357
vn 0.7563 -0.0715 0.6503
vn 0.2269 0.8250 0.5176
vn 0.3595 0.2428 0.9010
vn 0.3639 0.1492 0.9194
vn 0.3632 -0.0297 0.9312
vn -0.0000 0.8078 0.5894
vn -0.0000 0.2363 0.9717
vn -0.0000 0.1490 0.9888
vn -0.0000 -0.0176 0.9998
vn -0.0000 0.9971 -0.0759
vn -0.2269 0.8250 0.5176
vn -0.3595 0.2428 0.9010
vn -0.3639 0.1492 0.9194
vn -0.3632 -0.0297 0.9312
vn -0.4190 0.8598 0.2918
vn -0.7452 0.2554 0.6160
vn -0.7584 0.1438 0.6357
vn -0.7563 -0.0715 0.6503
vn -0.5013 0.8628 -0.0657
vn -0.9720 0.2342 -0.0178
vn -0.9942 0.1076 -0.0082
vn -0.9906 -0.1364 0.0104
vn -0.4190 0.8057 -0.4186
vn -0.7452 0.1593 -0.6475
vn -0.6808 -0.0041 -0.7325
vn -0.6386 -0.1742 -0.7496
vn -0.2269 0.7372 -0.6365
vn -0.3549 0.0959 -0.9300
vn -0.2943 -0.1037 -0.9501
vn -0.2561 -0.1650 -0.9525
vn -0.0000 0.7093 -0.7049
vn -0.0000 -0.1592 -0.9872
vn 0.3173 -0.0657 -0.9461
vn 0.7244 0.0819 -0.6845
vn 0.9786 0.2053 -0.0156
vn 0.7492 0.2298 0.6212
vn 0.3608 0.2212 0.9060
vn -0.0000 0.2162 0.9764
vn -0.3608 0.2212 0.9060
vn -0.7492 0.2298 0.6212
vn -0.9786 0.2053 -0.0156
vn -0.7244 0.0819 -0.6845
vn -0.3173 -0.0657 -0.9461
vn -0.0000 -0.1132 -0.9936
vn 0.3228 0.4033 -0.8563
vn 0.6427 0.4940 -0.5856
vn 0.8102 0.5845 -0.0445
vn 0.6427 0.5769 0.5041
vn 0.3228 0.5282 0.7854
vn -0.0000 0.5078 0.8615
vn -0.3228 0.5282 0.7854
vn -0.6427 0.5769 0.5041
vn -0.8102 0.5845 -0.0445
vn -0.6427 0.4940 -0.5856
vn -0.3228 0.4033 -0.8563
vn -0.0000 0.3716 -0.9284
vt 0.525714 0.200194
vt 0.525714 0.210982
vt 0.514623 0.210982
vt 0.514623 0.200194
vt 0.525714 0.233164
vt 0.520169 0.255347
vt 0.514623 0.233164
vt 0.525714 0.166617
vt 0.525714 0.188800
vt 0.514623 0.188800
vt 0.514623 0.166617
vt 0.525714 0.222073
vt 0.514623 0.222073
vt 0.503532 0.210982
vt 0.503532 0.200194
vt 0.509077 0.255347
vt 0.503532 0.233164
vt 0.503532 0.188800
vt 0.503532 0.166617
vt 0.503532 0.222073
vt 0.492440 0.210982
vt 0.492440 0.200194
vt 0.497986 0.255347
vt 0.492440 0.233164
vt 0.492440 0.188800
vt 0.492440 0.166617
vt 0.492440 0.222073
vt 0.486895 0.255347
vt 0.481349 0.233164
vt 0.481349 0.188800
vt 0.481349 0.166617
vt 0.481349 0.222073
vt 0.481349 0.210982
vt 0.481349 0.200194
vt 0.470258 0.188800
vt 0.470258 0.166617
vt 0.470258 0.233164
vt 0.470258 0.222073
vt 0.470258 0.210982
vt 0.470258 0.200194
vt 0.475804 0.255347
vt 0.459167 0.188800
vt 0.459167 0.166617
vt 0.459167 0.233164
vt 0.459167 0.222073
vt 0.459167 0.210982
vt 0.459167 0.200194
vt 0.464712 0.255347
vt 0.448076 0.188800
vt 0.448076 0.166617
vt 0.448076 0.233164
vt 0.448076 0.222073
vt 0.448076 0.210982
vt 0.448076 0.200194
vt 0.453621 0.255347
vt 0.436984 0.188800
vt 0.436984 0.166617
vt 0.436984 0.233164
vt 0.436984 0.222073
vt 0.436984 0.210982
vt 0.436984 0.200194
vt 0.442530 0.255347
vt 0.425893 0.233164
vt 0.425893 0.222073
vt 0.425893 0.210982
vt 0.425893 0.200194
vt 0.431439 0.255347
vt 0.425893 0.188800
vt 0.425893 0.166617
vt 0.558988 0.200194
vt 0.558988 0.210982
vt 0.547897 0.210982
vt 0.547897 0.200194
vt 0.558988 0.233164
vt 0.553442 0.255347
vt 0.547897 0.233164
vt 0.558988 0.166617
vt 0.558988 0.188800
vt 0.547897 0.188800
vt 0.547897 0.166617
vt 0.558988 0.222073
vt 0.547897 0.222073
vt 0.536805 0.210982
vt 0.536805 0.200194
vt 0.542351 0.255347
vt 0.536805 0.233164
vt 0.536805 0.188800
vt 0.536805 0.166617
vt 0.536805 0.222073
vt 0.531260 0.255347
s 1
usemtl Clown_Car
f 597/630/527 537/631/467 540/632/470 586/633/516
f 584/634/514 563/635/493 539/636/469
f 538/637/468 585/638/515 541/639/471 542/640/472
f 609/641/539 584/634/514 539/636/469 598/642/528
f 586/633/516 540/632/470 544/643/474 587/644/517
f 539/636/469 563/645/493 543/646/473
f 542/640/472 541/639/471 545/647/475 546/648/476
f 598/642/528 539/636/469 543/646/473 599/649/529
f 587/644/517 544/643/474 548/650/478 588/651/518
f 543/646/473 563/652/493 547/653/477
f 546/648/476 545/647/475 549/654/479 550/655/480
f 599/649/529 543/646/473 547/653/477 600/656/530
f 547/653/477 563/657/493 551/658/481
f 550/655/480 549/654/479 553/659/483 554/660/484
f 600/656/530 547/653/477 551/658/481 601/661/531
f 588/651/518 548/650/478 552/662/482 589/663/519
f 554/660/484 553/659/483 557/664/487 558/665/488
f 601/661/531 551/658/481 555/666/485 602/667/532
f 589/663/519 552/662/482 556/668/486 590/669/520
f 551/658/481 563/670/493 555/666/485
f 558/665/488 557/664/487 561/671/491 562/672/492
f 602/667/532 555/666/485 559/673/489 603/674/533
f 590/669/520 556/668/486 560/675/490 591/676/521
f 555/666/485 563/677/493 559/673/489
f 562/672/492 561/671/491 566/678/496 567/679/497
f 603/674/533 559/673/489 564/680/494 604/681/534
f 591/676/521 560/675/490 565/682/495 592/683/522
f 559/673/489 563/684/493 564/680/494
f 567/679/497 566/678/496 570/685/500 571/686/501
f 604/681/534 564/680/494 568/687/498 605/688/535
f 592/683/522 565/682/495 569/689/499 593/690/523
f 564/680/494 563/691/493 568/687/498
f 605/688/535 568/687/498 572/692/502 606/693/536
f 593/690/523 569/689/499 573/694/503 594/695/524
f 568/687/498 563/696/493 572/692/502
f 571/686/501 570/685/500 574/697/504 575/698/505
f 594/699/524 573/700/503 577/701/507 595/702/525
f 572/703/502 563/704/493 576/705/506
f 575/706/505 574/707/504 578/708/508 579/709/509
f 606/710/536 572/703/502 576/705/506 607/711/537
f 595/702/525 577/701/507 581/712/511 596/713/526
f 576/705/506 563/714/493 580/715/510
f 579/709/509 578/708/508 582/716/512 583/717/513
f 607/711/537 576/705/506 580/715/510 608/718/538
f 596/713/526 581/712/511 537/631/467 597/630/527
f 580/715/510 563/719/493 584/634/514
f 583/717/513 582/716/512 585/638/515 538/637/468
f 608/718/538 580/715/510 584/634/514 609/641/539
f 582/716/512 596/713/526 597/630/527 585/638/515
f 578/708/508 595/702/525 596/713/526 582/716/512
f 574/707/504 594/699/524 595/702/525 578/708/508
f 570/685/500 593/690/523 594/695/524 574/697/504
f 566/678/496 592/683/522 593/690/523 570/685/500
f 561/671/491 591/676/521 592/683/522 566/678/496
f 557/664/487 590/669/520 591/676/521 561/671/491
f 553/659/483 589/663/519 590/669/520 557/664/487
f 549/654/479 588/651/518 589/663/519 553/659/483
f 545/647/475 587/644/517 588/651/518 549/654/479
f 541/639/471 586/633/516 587/644/517 545/647/475
f 585/638/515 597/630/527 586/633/516 541/639/471
f 581/712/511 608/718/538 609/641/539 537/631/467
f 577/701/507 607/711/537 608/718/538 581/712/511
f 573/700/503 606/710/536 607/711/537 577/701/507
f 569/689/499 605/688/535 606/693/536 573/694/503
f 565/682/495 604/681/534 605/688/535 569/689/499
f 560/675/490 603/674/533 604/681/534 565/682/495
f 556/668/486 602/667/532 603/674/533 560/675/490
f 552/662/482 601/661/531 602/667/532 556/668/486
f 548/650/478 600/656/530 601/661/531 552/662/482
f 544/643/474 599/649/529 600/656/530 548/650/478
f 540/632/470 598/642/528 599/649/529 544/643/474
f 537/631/467 609/641/539 598/642/528 540/632/470
o Eyes
v 0.249315 1.103408 0.911719
v 0.199019 1.140084 0.924550
v 0.150601 1.198123 0.931913
v 0.144983 1.253133 0.907523
v 0.159496 1.300794 0.886948
v 0.246870 1.103595 0.918746
v 0.194865 1.140642 0.936563
v 0.146282 1.198477 0.945077
v 0.141336 1.253814 0.919251
v 0.157158 1.301009 0.893696
v 0.253097 1.105497 0.920992
v 0.205615 1.143664 0.940547
v 0.158155 1.202310 0.950497
v 0.151572 1.256854 0.923684
v 0.163279 1.302901 0.896250
v 0.265795 1.108548 0.918377
v 0.228155 1.148561 0.935878
v 0.183041 1.208595 0.946722
v 0.173091 1.261696 0.919804
v 0.175771 1.305924 0.894202
v 0.281632 1.112036 0.911946
v 0.256132 1.154334 0.921179
v 0.215306 1.211319 0.929056
v 0.200366 1.267467 0.908930
v 0.191493 1.309406 0.888100
v 0.285158 1.094647 0.904630
v 0.296483 1.115099 0.903526
v 0.281802 1.159486 0.905824
v 0.245239 1.215965 0.910074
v 0.226008 1.272734 0.894152
v 0.206418 1.312503 0.879541
v 0.182852 1.322948 0.875233
v 0.306284 1.116853 0.895240
v 0.298335 1.162465 0.892309
v 0.264770 1.220447 0.893960
v 0.242934 1.275869 0.879351
v 0.216399 1.314307 0.870844
v 0.308812 1.116827 0.888766
v 0.302615 1.162468 0.882425
v 0.274964 1.224707 0.882940
v 0.247494 1.275923 0.867754
v 0.219032 1.314303 0.864111
v 0.302496 1.114768 0.885992
v 0.291731 1.158893 0.876664
v 0.256601 1.215938 0.875529
v 0.236360 1.272179 0.863212
v 0.212618 1.312207 0.861547
v -0.249315 1.103408 0.911719
v -0.199019 1.140084 0.924550
v -0.150601 1.198123 0.931913
v -0.144983 1.253133 0.907523
v -0.159496 1.300794 0.886948
v -0.246870 1.103595 0.918746
v -0.194865 1.140642 0.936563
v -0.146282 1.198477 0.945077
v -0.141336 1.253814 0.919251
v -0.157158 1.301009 0.893696
v -0.253097 1.105497 0.920992
v -0.205615 1.143664 0.940547
v -0.158155 1.202310 0.950497
v -0.151572 1.256854 0.923684
v -0.163279 1.302901 0.896250
v -0.265795 1.108548 0.918377
v -0.228155 1.148561 0.935878
v -0.183041 1.208595 0.946722
v -0.173091 1.261696 0.919804
v -0.175771 1.305924 0.894202
v -0.281632 1.112036 0.911946
v -0.256132 1.154334 0.921179
v -0.215306 1.211319 0.929056
v -0.200366 1.267467 0.908930
v -0.191493 1.309406 0.888100
v -0.285158 1.094647 0.904630
v -0.296483 1.115099 0.903526
v -0.281802 1.159486 0.905824
v -0.245239 1.215965 0.910074
v -0.226008 1.272734 0.894152
v -0.206418 1.312503 0.879541
v -0.182852 1.322948 0.875233
v -0.306284 1.116853 0.895240
v -0.298335 1.162465 0.892309
v -0.264770 1.220447 0.893960
v -0.242934 1.275869 0.879351
v -0.216399 1.314307 0.870844
v -0.308812 1.116827 0.888766
v -0.302615 1.162468 0.882425
v -0.274964 1.224707 0.882940
v -0.247494 1.275923 0.867754
v -0.219032 1.314303 0.864111
v -0.302496 1.114768 0.885992
v -0.291731 1.158893 0.876664
v -0.256601 1.215938 0.875529
v -0.236360 1.272179 0.863212
v -0.212618 1.312207 0.861547
vn -0.3800 -0.9191 -0.1040
vn -0.6707 -0.7136 -0.2023
vn -0.8665 -0.4213 -0.2678
vn -0.9515 0.0051 -0.3076
vn -0.8290 0.4747 -0.2956
vn -0.3507 -0.8707 0.3447
vn -0.5838 -0.6954 0.4190
vn -0.8434 -0.2535 0.4738
vn -0.9313 0.2172 0.2924
vn -0.8122 0.5571 0.1732
vn 0.1077 -0.5329 0.8393
vn -0.0010 -0.3107 0.9505
vn -0.1779 0.0856 0.9803
vn -0.2470 0.4743 0.8450
vn -0.2493 0.6814 0.6881
vn 0.3509 -0.2222 0.9096
vn 0.3309 -0.0050 0.9437
vn 0.2306 0.2571 0.9385
vn 0.1585 0.4712 0.8677
vn 0.0719 0.6243 0.7779
vn 0.4696 -0.0901 0.8782
vn 0.4604 0.1415 0.8764
vn 0.4227 0.3086 0.8521
vn 0.3394 0.4440 0.8293
vn 0.2379 0.6093 0.7564
vn 0.4886 -0.4657 0.7379
vn 0.5964 -0.0777 0.7989
vn 0.5411 0.2074 0.8150
vn 0.5010 0.3293 0.8004
vn 0.4653 0.4443 0.7656
vn 0.3592 0.6582 0.6616
vn 0.0643 0.8534 0.5172
vn 0.8218 -0.1699 0.5439
vn 0.7303 0.2606 0.6315
vn 0.6327 0.3838 0.6726
vn 0.6456 0.5027 0.5748
vn 0.4958 0.7728 0.3962
vn 0.9143 -0.2940 -0.2787
vn 0.9129 0.2393 -0.3307
vn 0.8852 0.4018 -0.2345
vn 0.8181 0.4117 -0.4015
vn 0.5442 0.7205 -0.4298
vn 0.4987 -0.5166 -0.6960
vn 0.4010 0.0632 -0.9139
vn 0.3725 0.0554 -0.9264
vn 0.3603 0.0580 -0.9310
vn 0.1330 0.5806 -0.8033
vn 0.3800 -0.9191 -0.1040
vn 0.6707 -0.7136 -0.2023
vn 0.8665 -0.4213 -0.2678
vn 0.9515 0.0051 -0.3076
vn 0.8290 0.4747 -0.2956
vn 0.3507 -0.8707 0.3447
vn 0.5838 -0.6954 0.4190
vn 0.8434 -0.2535 0.4738
vn 0.9313 0.2172 0.2924
vn 0.8122 0.5571 0.1732
vn -0.1077 -0.5329 0.8393
vn 0.0010 -0.3107 0.9505
vn 0.1779 0.0856 0.9803
vn 0.2470 0.4743 0.8450
vn 0.2493 0.6814 0.6881
vn -0.3509 -0.2222 0.9096
vn -0.3309 -0.0050 0.9437
vn -0.2306 0.2571 0.9385
vn -0.1585 0.4712 0.8677
vn -0.0719 0.6243 0.7779
vn -0.4696 -0.0901 0.8782
vn -0.4604 0.1415 0.8764
vn -0.4227 0.3086 0.8521
vn -0.3394 0.4440 0.8293
vn -0.2379 0.6093 0.7564
vn -0.4886 -0.4657 0.7379
vn -0.5964 -0.0777 0.7989
vn -0.5411 0.2074 0.8150
vn -0.5010 0.3293 0.8004
vn -0.4653 0.4443 0.7656
vn -0.3592 0.6582 0.6616
vn -0.0643 0.8534 0.5172
vn -0.8218 -0.1699 0.5439
vn -0.7303 0.2606 0.6315
vn -0.6327 0.3838 0.6726
vn -0.6456 0.5027 0.5748
vn -0.4958 0.7728 0.3962
vn -0.9143 -0.2940 -0.2787
vn -0.9129 0.2393 -0.3307
vn -0.8852 0.4018 -0.2345
vn -0.8181 0.4117 -0.4015
vn -0.5442 0.7205 -0.4298
vn -0.4987 -0.5166 -0.6960
vn -0.4010 0.0632 -0.9139
vn -0.3725 0.0554 -0.9264
vn -0.3603 0.0580 -0.9310
vn -0.1330 0.5806 -0.8033
vt 0.105112 0.277966
vt 0.097373 0.288400
vt 0.097848 0.288211
vt 0.105905 0.277597
vt 0.102994 0.243492
vt 0.108848 0.252084
vt 0.109533 0.251722
vt 0.103446 0.243303
vt 0.111150 0.263393
vt 0.111988 0.263054
vt 0.090777 0.292374
vt 0.096963 0.240530
vt 0.107304 0.251753
vt 0.102109 0.243307
vt 0.103576 0.277663
vt 0.109384 0.263029
vt 0.096489 0.288219
vt 0.102716 0.252126
vt 0.099432 0.243482
vt 0.098781 0.278089
vt 0.104036 0.263324
vt 0.093770 0.288401
vt 0.096923 0.252672
vt 0.096084 0.243765
vt 0.092848 0.278679
vt 0.097438 0.264787
vt 0.090398 0.288691
vt 0.091487 0.253217
vt 0.092918 0.244077
vt 0.087414 0.279248
vt 0.091186 0.265723
vt 0.087249 0.289004
vt 0.083935 0.279683
vt 0.087016 0.266044
vt 0.085187 0.289264
vt 0.090817 0.244338
vt 0.087920 0.253645
vt 0.084685 0.289426
vt 0.090293 0.244502
vt 0.084721 0.265829
vt 0.087009 0.253918
vt 0.083082 0.279948
vt 0.091701 0.244521
vt 0.088924 0.266435
vt 0.089460 0.253972
vt 0.086071 0.289444
vt 0.085472 0.279984
s 1
usemtl Clown_Car
f 611/720/541 610/721/540 615/722/545 616/723/546
f 614/724/544 613/725/543 618/726/548 619/727/549
f 612/728/542 611/720/541 616/723/546 617/729/547
f 610/721/540 635/730/565 615/722/545
f 641/731/571 614/724/544 619/727/549
f 613/725/543 612/728/542 617/729/547 618/726/548
f 619/727/549 618/726/548 623/732/553 624/733/554
f 617/729/547 616/723/546 621/734/551 622/735/552
f 615/722/545 635/730/565 620/736/550
f 641/731/571 619/727/549 624/733/554
f 618/726/548 617/729/547 622/735/552 623/732/553
f 616/723/546 615/722/545 620/736/550 621/734/551
f 624/733/554 623/732/553 628/737/558 629/738/559
f 622/735/552 621/734/551 626/739/556 627/740/557
f 620/736/550 635/730/565 625/741/555
f 641/731/571 624/733/554 629/738/559
f 623/732/553 622/735/552 627/740/557 628/737/558
f 621/734/551 620/736/550 625/741/555 626/739/556
f 629/738/559 628/737/558 633/742/563 634/743/564
f 627/740/557 626/739/556 631/744/561 632/745/562
f 625/741/555 635/730/565 630/746/560
f 641/731/571 629/738/559 634/743/564
f 628/737/558 627/740/557 632/745/562 633/742/563
f 626/739/556 625/741/555 630/746/560 631/744/561
f 634/743/564 633/742/563 639/747/569 640/748/570
f 632/745/562 631/744/561 637/749/567 638/750/568
f 630/746/560 635/730/565 636/751/566
f 641/731/571 634/743/564 640/748/570
f 633/742/563 632/745/562 638/750/568 639/747/569
f 631/744/561 630/746/560 636/751/566 637/749/567
f 638/750/568 637/749/567 643/752/573 644/753/574
f 636/751/566 635/730/565 642/754/572
f 641/731/571 640/748/570 646/755/576
f 639/747/569 638/750/568 644/753/574 645/756/575
f 637/749/567 636/751/566 642/754/572 643/752/573
f 640/748/570 639/747/569 645/756/575 646/755/576
f 642/754/572 635/730/565 647/757/577
f 641/731/571 646/755/576 651/758/581
f 645/756/575 644/753/574 649/759/579 650/760/580
f 643/752/573 642/754/572 647/757/577 648/761/578
f 646/755/576 645/756/575 650/760/580 651/758/581
f 644/753/574 643/752/573 648/761/578 649/759/579
f 641/731/571 651/758/581 656/762/586
f 650/760/580 649/759/579 654/763/584 655/764/585
f 648/761/578 647/757/577 652/765/582 653/766/583
f 651/758/581 650/760/580 655/764/585 656/762/586
f 649/759/579 648/761/578 653/766/583 654/763/584
f 647/757/577 635/730/565 652/765/582
f 658/720/588 663/723/593 662/722/592 657/721/587
f 661/724/591 666/727/596 665/726/595 660/725/590
f 659/728/589 664/729/594 663/723/593 658/720/588
f 657/721/587 662/722/592 682/730/612
f 688/731/618 666/727/596 661/724/591
f 660/725/590 665/726/595 664/729/594 659/728/589
f 666/727/596 671/733/601 670/732/600 665/726/595
f 664/729/594 669/735/599 668/734/598 663/723/593
f 662/722/592 667/736/597 682/730/612
f 688/731/618 671/733/601 666/727/596
f 665/726/595 670/732/600 669/735/599 664/729/594
f 663/723/593 668/734/598 667/736/597 662/722/592
f 671/733/601 676/738/606 675/737/605 670/732/600
f 669/735/599 674/740/604 673/739/603 668/734/598
f 667/736/597 672/741/602 682/730/612
f 688/731/618 676/738/606 671/733/601
f 670/732/600 675/737/605 674/740/604 669/735/599
f 668/734/598 673/739/603 672/741/602 667/736/597
f 676/738/606 681/743/611 680/742/610 675/737/605
f 674/740/604 679/745/609 678/744/608 673/739/603
f 672/741/602 677/746/607 682/730/612
f 688/731/618 681/743/611 676/738/606
f 675/737/605 680/742/610 679/745/609 674/740/604
f 673/739/603 678/744/608 677/746/607 672/741/602
f 681/743/611 687/748/617 686/747/616 680/742/610
f 679/745/609 685/750/615 684/749/614 678/744/608
f 677/746/607 683/751/613 682/730/612
f 688/731/618 687/748/617 681/743/611
f 680/742/610 686/747/616 685/750/615 679/745/609
f 678/744/608 684/749/614 683/751/613 677/746/607
f 685/750/615 691/753/621 690/752/620 684/749/614
f 683/751/613 689/754/619 682/730/612
f 688/731/618 693/755/623 687/748/617
f 686/747/616 692/756/622 691/753/621 685/750/615
f 684/749/614 690/752/620 689/754/619 683/751/613
f 687/748/617 693/755/623 692/756/622 686/747/616
f 689/754/619 694/757/624 682/730/612
f 688/731/618 698/758/628 693/755/623
f 692/756/622 697/760/627 696/759/626 691/753/621
f 690/752/620 695/761/625 694/757/624 689/754/619
f 693/755/623 698/758/628 697/760/627 692/756/622
f 691/753/621 696/759/626 695/761/625 690/752/620
f 688/731/618 703/762/633 698/758/628
f 697/760/627 702/764/632 701/763/631 696/759/626
f 695/761/625 700/766/630 699/765/629 694/757/624
f 698/758/628 703/762/633 702/764/632 697/760/627
f 696/759/626 701/763/631 700/766/630 695/761/625
f 694/757/624 699/765/629 682/730/612
o Nose
v 0.039073 1.260605 0.919241
v 0.078146 1.230374 0.919241
v 0.039073 1.210370 0.919241
v 0.069122 1.249776 0.947255
v 0.069122 1.215571 0.947255
v 0.023041 1.265672 0.947255
v 0.046081 1.235078 0.975269
v 0.023041 1.206427 0.947255
v -0.000000 1.253441 0.975269
v -0.000000 1.219236 0.975269
v 0.000000 1.265342 0.919241
v -0.023041 1.265672 0.947255
v -0.046081 1.235078 0.975269
v -0.023041 1.206427 0.947255
v 0.000000 1.207335 0.919241
v -0.069122 1.249776 0.947255
v -0.069122 1.215571 0.947255
v -0.039073 1.260605 0.919241
v -0.078146 1.230374 0.919241
v -0.039073 1.210370 0.919241
vn 0.3049 0.9474 -0.0969
vn 0.9842 -0.1733 0.0354
vn 0.2117 -0.9703 -0.1173
vn 0.5563 0.7960 0.2386
vn 0.4463 -0.8623 0.2393
vn 0.1526 0.9667 0.2055
vn 0.4030 -0.0026 0.9152
vn 0.1065 -0.9731 0.2045
vn -0.0000 0.7331 0.6801
vn -0.0000 -0.7180 0.6960
vn -0.0000 0.9989 0.0467
vn -0.1526 0.9667 0.2055
vn -0.4030 -0.0026 0.9152
vn -0.1065 -0.9731 0.2045
vn -0.0000 -0.9996 0.0300
vn -0.5563 0.7960 0.2386
vn -0.4463 -0.8623 0.2393
vn -0.3049 0.9474 -0.0969
vn -0.9842 -0.1733 0.0354
vn -0.2117 -0.9703 -0.1173
vt 0.375000 1.000000
vt 0.333333 0.833333
vt 0.416667 0.666667
vt 0.500000 0.833333
vt 0.500000 0.166667
vt 0.416667 0.333333
vt 0.333333 0.166667
vt 0.458333 0.000000
vt 0.333333 0.500000
vt 0.250000 0.333333
vt 0.250000 0.666667
vt 0.166667 0.166667
vt 0.291667 0.000000
vt 0.166667 0.500000
vt 0.208333 1.000000
vt 0.166667 0.833333
vt 0.083333 0.333333
vt 0.083333 0.666667
vt 0.000000 0.500000
vt 0.041667 1.000000
vt 0.000000 0.833333
vt 0.000000 0.166667
vt 0.125000 0.000000
vt 0.500000 0.500000
s 1
usemtl Nose
f 714/767/644 709/768/639 707/769/637 704/770/634
f 706/771/636 708/772/638 711/773/641 718/774/648
f 708/772/638 710/775/640 713/776/643 711/773/641
f 707/769/637 709/768/639 712/777/642 710/775/640
f 711/773/641 713/776/643 717/778/647 718/779/648
f 710/775/640 712/777/642 716/780/646 713/776/643
f 714/781/644 715/782/645 712/777/642 709/768/639
f 713/776/643 716/780/646 720/783/650 717/778/647
f 712/777/642 715/782/645 719/784/649 716/780/646
f 716/780/646 719/784/649 722/785/652 720/783/650
f 714/786/644 721/787/651 719/784/649 715/782/645
f 717/778/647 720/783/650 723/788/653 718/789/648
f 722/785/652 723/788/653 720/783/650
f 721/787/651 722/785/652 719/784/649
f 705/790/635 707/769/637 710/775/640 708/772/638
f 704/770/634 707/769/637 705/790/635
f 705/790/635 708/772/638 706/771/636
o Tongue_
v 0.000000 0.197958 1.348566
v 0.000000 0.312359 1.243918
v 0.000000 0.724837 0.461528
v 0.000000 0.711745 0.452443
v 0.141970 0.708598 0.450369
v 0.141948 0.721788 0.459317
v 0.074729 0.217270 1.333788
v 0.074701 0.225046 1.342569
v 0.000000 0.332682 1.266868
v 0.000000 0.205734 1.357347
v 0.141959 0.715178 0.454833
v 0.074713 0.221085 1.338095
v 0.000000 0.718161 0.456895
v 0.000000 0.201765 1.352865
v 0.000000 0.611288 1.040615
v 0.205575 0.597800 1.054016
v 0.205501 0.616631 1.080467
v 0.000000 0.630280 1.066956
v 0.205538 0.607191 1.067208
v 0.000000 0.459108 1.138085
v 0.213912 0.417901 1.163284
v 0.000000 0.478662 1.163185
v 0.213874 0.427963 1.175434
v 0.213836 0.438075 1.187654
v 0.204105 0.724113 0.894332
v 0.000000 0.703792 0.873020
v 0.204169 0.701027 0.870226
v 0.000000 0.726710 0.897291
v 0.204137 0.712542 0.882250
v 0.210835 0.383344 1.187247
v 0.141285 0.247916 1.304061
v 0.124523 0.303633 1.252065
v 0.187101 0.307884 1.249918
v 0.141229 0.262219 1.320207
v 0.210758 0.403768 1.211011
v 0.124442 0.323960 1.275011
v 0.187028 0.326576 1.271016
v 0.141257 0.255019 1.312078
v 0.210797 0.393529 1.199097
v 0.187065 0.317196 1.260430
v -0.141970 0.708598 0.450369
v -0.141948 0.721788 0.459317
v -0.074729 0.217270 1.333788
v -0.074701 0.225046 1.342569
v -0.141959 0.715178 0.454833
v -0.074713 0.221085 1.338095
v -0.205575 0.597800 1.054016
v -0.205501 0.616631 1.080467
v -0.205538 0.607191 1.067208
v -0.213912 0.417901 1.163284
v -0.213874 0.427963 1.175434
v -0.213836 0.438075 1.187654
v -0.204105 0.724113 0.894332
v -0.204169 0.701027 0.870226
v -0.204137 0.712542 0.882250
v -0.210835 0.383344 1.187247
v -0.141285 0.247916 1.304061
v -0.124523 0.303633 1.252065
v -0.187101 0.307884 1.249918
v -0.141229 0.262219 1.320207
v -0.210758 0.403768 1.211011
v -0.124442 0.323960 1.275011
v -0.187028 0.326576 1.271016
v -0.141257 0.255019 1.312078
v -0.210797 0.393529 1.199097
v -0.187065 0.317196 1.260430
vn -0.0000 -0.7923 0.6101
vn -0.0000 -0.6164 -0.7875
vn -0.0000 0.7820 -0.6233
vn -0.0000 0.1846 -0.9828
vn 0.6350 0.1238 -0.7625
vn 0.0600 0.7806 -0.6221
vn 0.3473 -0.8406 0.4157
vn 0.4106 -0.4585 0.7881
vn -0.0000 0.5851 0.8109
vn -0.0000 -0.7278 0.6858
vn 0.3583 0.5367 -0.7640
vn 0.3982 -0.6862 0.6087
vn -0.0000 0.5658 -0.8246
vn -0.0000 -0.7484 0.6633
vn -0.0000 -0.8103 -0.5861
vn 0.8197 -0.3530 -0.4510
vn 0.8110 0.3872 0.4386
vn -0.0000 0.8043 0.5943
vn 0.9997 0.0201 -0.0129
vn -0.0000 -0.5366 -0.8438
vn 0.8158 -0.3553 -0.4564
vn -0.0000 0.5326 0.8464
vn 0.9998 -0.0110 0.0136
vn 0.8171 0.3285 0.4739
vn 0.7081 0.7041 0.0536
vn -0.0000 -0.9772 -0.2124
vn 0.7538 -0.6330 -0.1766
vn -0.0000 0.9795 0.2013
vn 0.9948 0.0705 -0.0737
vn 0.8112 -0.4563 -0.3657
vn 0.5691 -0.8016 0.1831
vn 0.0108 -0.6646 -0.7472
vn 0.7702 -0.6153 -0.1681
vn 0.6477 -0.1595 0.7450
vn 0.8101 0.2529 0.5290
vn 0.0099 0.5885 0.8084
vn 0.7846 0.1322 0.6057
vn 0.6862 -0.5434 0.4836
vn 0.9877 -0.1167 0.1042
vn 0.9270 -0.2798 0.2499
vn -0.6350 0.1238 -0.7625
vn -0.0600 0.7806 -0.6221
vn -0.3473 -0.8406 0.4157
vn -0.4106 -0.4585 0.7881
vn -0.3583 0.5367 -0.7640
vn -0.3982 -0.6862 0.6087
vn -0.8197 -0.3530 -0.4510
vn -0.8110 0.3872 0.4386
vn -0.9997 0.0201 -0.0129
vn -0.8158 -0.3553 -0.4564
vn -0.9998 -0.0110 0.0136
vn -0.8171 0.3285 0.4739
vn -0.7081 0.7041 0.0536
vn -0.7538 -0.6330 -0.1766
vn -0.9948 0.0705 -0.0737
vn -0.8112 -0.4563 -0.3657
vn -0.5691 -0.8016 0.1831
vn -0.0108 -0.6646 -0.7472
vn -0.7702 -0.6153 -0.1681
vn -0.6477 -0.1595 0.7450
vn -0.8101 0.2529 0.5290
vn -0.0099 0.5885 0.8084
vn -0.7846 0.1322 0.6057
vn -0.6862 -0.5434 0.4836
vn -0.9877 -0.1167 0.1042
vn -0.9270 -0.2798 0.2499
vt 0.852286 0.090799
vt 0.896474 0.090799
vt 0.896474 0.134869
vt 0.852286 0.134869
vt 0.896474 0.180569
vt 0.940545 0.180569
vt 0.940545 0.195802
vt 0.913475 0.195802
vt 0.896474 0.184754
vt 0.764261 0.180569
vt 0.808332 0.180569
vt 0.808332 0.184755
vt 0.791331 0.195802
vt 0.764261 0.195802
vt 0.852286 0.180569
vt 0.852286 0.184755
vt 0.869265 0.250220
vt 0.852358 0.250220
vt 0.852321 0.221921
vt 0.883414 0.221922
vt 0.883414 0.236071
vt 0.896474 0.240013
vt 0.896474 0.267082
vt 0.869265 0.267082
vt 0.852358 0.267082
vt 0.835541 0.250220
vt 0.835541 0.267082
vt 0.821392 0.221922
vt 0.808332 0.090799
vt 0.808332 0.134869
vt 0.808332 0.150103
vt 0.852286 0.150103
vt 0.852286 0.165336
vt 0.808332 0.165336
vt 0.896474 0.150103
vt 0.940545 0.150103
vt 0.940545 0.165336
vt 0.896474 0.165336
vt 0.764261 0.150103
vt 0.764261 0.165336
vt 0.764261 0.134869
vt 0.940545 0.134869
vt 0.804827 0.195802
vt 0.795753 0.195802
vt 0.896474 0.226516
vt 0.896474 0.223011
vt 0.892420 0.195802
vt 0.852018 0.195802
vt 0.811372 0.195802
vt 0.808332 0.267082
vt 0.808332 0.240012
vt 0.821392 0.236071
s 1
usemtl Clown_Car
f 736/791/666 726/792/656 729/793/659 734/794/664
f 747/795/677 745/796/675 732/797/662 759/798/689 758/799/688
f 743/800/673 744/801/674 753/802/683 755/803/685 725/804/655
f 744/801/674 746/805/676 762/806/692 753/802/683
f 731/807/661 735/808/665 761/809/691 757/810/687
f 757/811/687 759/812/689 732/813/662 733/814/663 731/807/661
f 735/808/665 731/807/661 733/814/663 737/815/667
f 730/816/660 735/808/665 737/815/667 724/817/654
f 746/805/676 747/795/677 758/799/688 762/806/692
f 735/808/665 730/816/660 754/818/684 761/809/691
f 727/819/657 736/791/666 734/794/664 728/820/658
f 750/821/680 752/822/682 742/823/672 739/824/669
f 748/825/678 751/826/681 741/827/671 740/828/670
f 749/829/679 750/821/680 739/824/669 738/830/668
f 752/822/682 748/825/678 740/828/670 742/823/672
f 739/824/669 742/823/672 746/805/676 744/801/674
f 740/828/670 741/827/671 745/796/675 747/795/677
f 738/830/668 739/824/669 744/801/674 743/800/673
f 742/823/672 740/828/670 747/795/677 746/805/676
f 734/794/664 729/793/659 748/825/678 752/822/682
f 727/831/657 728/820/658 750/821/680 749/829/679
f 729/793/659 726/832/656 751/826/681 748/825/678
f 728/820/658 734/794/664 752/822/682 750/821/680
f 753/802/683 756/833/686 755/803/685
f 756/833/686 754/834/684 755/803/685
f 757/811/687 760/835/690 759/812/689
f 760/835/690 758/836/688 759/812/689
f 762/806/692 758/799/688 760/837/690 763/838/693
f 763/838/693 760/837/690 757/810/687 761/809/691
f 753/802/683 762/806/692 763/838/693 756/839/686
f 756/839/686 763/838/693 761/809/691 754/818/684
f 725/840/655 755/841/685 754/842/684 730/816/660 724/817/654
f 736/791/666 768/794/698 765/793/695 726/792/656
f 775/795/705 784/799/714 785/798/715 732/797/662 745/796/675
f 743/800/673 725/804/655 781/803/711 779/802/709 773/801/703
f 773/801/703 779/802/709 788/806/718 774/805/704
f 767/807/697 783/810/713 787/809/717 769/808/699
f 783/811/713 767/807/697 733/814/663 732/813/662 785/812/715
f 769/808/699 737/815/667 733/814/663 767/807/697
f 766/816/696 724/817/654 737/815/667 769/808/699
f 774/805/704 788/806/718 784/799/714 775/795/705
f 769/808/699 787/809/717 780/818/710 766/816/696
f 727/819/657 764/820/694 768/794/698 736/791/666
f 777/821/707 770/824/700 772/823/702 778/822/708
f 776/825/706 771/828/701 741/827/671 751/826/681
f 749/829/679 738/830/668 770/824/700 777/821/707
f 778/822/708 772/823/702 771/828/701 776/825/706
f 770/824/700 773/801/703 774/805/704 772/823/702
f 771/828/701 775/795/705 745/796/675 741/827/671
f 738/830/668 743/800/673 773/801/703 770/824/700
f 772/823/702 774/805/704 775/795/705 771/828/701
f 768/794/698 778/822/708 776/825/706 765/793/695
f 727/831/657 749/829/679 777/821/707 764/820/694
f 765/793/695 776/825/706 751/826/681 726/832/656
f 764/820/694 777/821/707 778/822/708 768/794/698
f 779/802/709 781/803/711 782/833/712
f 782/833/712 781/803/711 780/834/710
f 783/811/713 785/812/715 786/835/716
f 786/835/716 785/812/715 784/836/714
f 788/806/718 789/838/719 786/837/716 784/799/714
f 789/838/719 787/809/717 783/810/713 786/837/716
f 779/802/709 782/839/712 789/838/719 788/806/718
f 782/839/712 780/818/710 787/809/717 789/838/719
f 725/840/655 724/817/654 766/816/696 780/842/710 781/841/711
